<svg xmlns="http://www.w3.org/2000/svg" width="1480" height="670" viewBox="0 0 1480 670">
<style>text{font-family:Arial,sans-serif;font-size:11px;fill:#1f1f1f}.title{font-size:18px}.note{fill:#666;font-size:12px}.head{font-size:15px}.subhead{fill:#555;font-size:10px;text-transform:uppercase;letter-spacing:.04em}.rule{stroke:#222;stroke-width:1.25}.row{stroke:#e7e2d8;stroke-width:1}.stripe{fill:#f7f5ef}.bar-bg{stroke:#d9d3c8;stroke-width:1}.support{stroke:#1f1f1f}.risk{fill:#b42318}.water{fill:#b45309}.panel{fill:#0f766e}.official{fill:#111}.muted{fill:#777}.candidate{font-size:10.5px}</style>
<rect width="100%" height="100%" fill="#fffffb"/>
<text class="title" x="46" y="34">Mechanistic hypothesis map</text>
<text class="note" x="46" y="56">Three hypothesis queues. Each lane lists the candidates that most express that mechanism; bars separate mechanism relevance from observed paired-model support.</text>
<text class="note" x="46" y="74">Caveat/action text is part of the graphic: panel-local, no-waters, and clash states are not hidden behind a composite score.</text>
<text class="head" x="42" y="104">Gatekeeper / vault</text>
<text class="note" x="42" y="122">Official JTY027 hydrophobes; loop bridge still missing.</text>
<line class="rule" x1="42" y1="134" x2="494" y2="134"/>
<text class="subhead" x="42" y="148">candidate</text>
<text class="subhead" x="230" y="148">mechanism</text>
<text class="subhead" x="328" y="148">support</text>
<text class="subhead" x="418" y="148">action</text>
<line class="row" x1="42" y1="174" x2="494" y2="174"/>
<text class="candidate" x="46" y="162">26diMe_benzamide</text>
<text class="official" x="46" y="176">rank 1</text>
<line class="bar-bg" x1="230" y1="158" x2="306" y2="158"/><line class="" stroke="#8a3ffc" stroke-width="3.2" x1="230" y1="158" x2="304.5" y2="158"/>
<line class="bar-bg" x1="328" y1="158" x2="392" y2="158"/><line class="support" stroke="#1f1f1f" stroke-width="3.2" x1="328" y1="158" x2="392.0" y2="158"/>
<text x="418" y="162">queue RBFE or shared ...</text>
<rect class="stripe" x="42" y="175" width="452" height="34"/>
<line class="row" x1="42" y1="208" x2="494" y2="208"/>
<text class="candidate" x="46" y="196">2Et_benzamide</text>
<text class="official" x="46" y="210">rank 2</text>
<line class="bar-bg" x1="230" y1="192" x2="306" y2="192"/><line class="" stroke="#8a3ffc" stroke-width="3.2" x1="230" y1="192" x2="304.5" y2="192"/>
<line class="bar-bg" x1="328" y1="192" x2="392" y2="192"/><line class="support" stroke="#1f1f1f" stroke-width="3.2" x1="328" y1="192" x2="390.9" y2="192"/>
<text x="418" y="196">queue RBFE or shared ...</text>
<line class="row" x1="42" y1="242" x2="494" y2="242"/>
<text class="candidate" x="46" y="230">2F6Me_benzamide</text>
<text class="risk" x="46" y="244">pose missing</text>
<line class="bar-bg" x1="230" y1="226" x2="306" y2="226"/><line class="" stroke="#8a3ffc" stroke-width="3.2" x1="230" y1="226" x2="298.4" y2="226"/>
<line class="bar-bg" x1="328" y1="226" x2="392" y2="226"/><line class="support" stroke="#1f1f1f" stroke-width="3.2" x1="328" y1="226" x2="389.0" y2="226"/>
<text x="418" y="230">recover docked pose b...</text>
<rect class="stripe" x="42" y="243" width="452" height="34"/>
<line class="row" x1="42" y1="276" x2="494" y2="276"/>
<text class="candidate" x="46" y="264">2Me_benzamide</text>
<text class="official" x="46" y="278">rank 6</text>
<line class="bar-bg" x1="230" y1="260" x2="306" y2="260"/><line class="" stroke="#8a3ffc" stroke-width="3.2" x1="230" y1="260" x2="298.4" y2="260"/>
<line class="bar-bg" x1="328" y1="260" x2="392" y2="260"/><line class="support" stroke="#1f1f1f" stroke-width="3.2" x1="328" y1="260" x2="386.0" y2="260"/>
<text x="418" y="264">context</text>
<line class="row" x1="42" y1="310" x2="494" y2="310"/>
<text class="candidate" x="46" y="298">2Me6Cl_benzamide</text>
<text class="risk" x="46" y="312">pose missing</text>
<line class="bar-bg" x1="230" y1="294" x2="306" y2="294"/><line class="" stroke="#8a3ffc" stroke-width="3.2" x1="230" y1="294" x2="298.4" y2="294"/>
<line class="bar-bg" x1="328" y1="294" x2="392" y2="294"/><line class="support" stroke="#1f1f1f" stroke-width="3.2" x1="328" y1="294" x2="384.3" y2="294"/>
<text x="418" y="298">recover docked pose b...</text>
<rect class="stripe" x="42" y="311" width="452" height="34"/>
<line class="row" x1="42" y1="344" x2="494" y2="344"/>
<text class="candidate" x="46" y="332">2CF3_benzamide</text>
<text class="risk" x="46" y="346">pose missing</text>
<line class="bar-bg" x1="230" y1="328" x2="306" y2="328"/><line class="" stroke="#8a3ffc" stroke-width="3.2" x1="230" y1="328" x2="298.4" y2="328"/>
<line class="bar-bg" x1="328" y1="328" x2="392" y2="328"/><line class="support" stroke="#1f1f1f" stroke-width="3.2" x1="328" y1="328" x2="380.2" y2="328"/>
<text x="418" y="332">recover docked pose b...</text>
<line class="row" x1="42" y1="378" x2="494" y2="378"/>
<text class="candidate" x="46" y="366">2F_benzamide</text>
<text class="risk" x="46" y="380">pose missing</text>
<line class="bar-bg" x1="230" y1="362" x2="306" y2="362"/><line class="" stroke="#8a3ffc" stroke-width="3.2" x1="230" y1="362" x2="298.4" y2="362"/>
<line class="bar-bg" x1="328" y1="362" x2="392" y2="362"/><line class="support" stroke="#1f1f1f" stroke-width="3.2" x1="328" y1="362" x2="372.9" y2="362"/>
<text x="418" y="366">recover docked pose b...</text>
<rect class="stripe" x="42" y="379" width="452" height="34"/>
<line class="row" x1="42" y1="412" x2="494" y2="412"/>
<text class="candidate" x="46" y="400">2Cl_benzamide</text>
<text class="risk" x="46" y="414">pose missing</text>
<line class="bar-bg" x1="230" y1="396" x2="306" y2="396"/><line class="" stroke="#8a3ffc" stroke-width="3.2" x1="230" y1="396" x2="298.4" y2="396"/>
<line class="bar-bg" x1="328" y1="396" x2="392" y2="396"/><line class="support" stroke="#1f1f1f" stroke-width="3.2" x1="328" y1="396" x2="372.0" y2="396"/>
<text x="418" y="400">recover docked pose b...</text>
<line class="row" x1="42" y1="446" x2="494" y2="446"/>
<text class="candidate" x="46" y="434">2Cyano_benzamide</text>
<text class="water" x="46" y="448">no waters</text>
<line class="bar-bg" x1="230" y1="430" x2="306" y2="430"/><line class="" stroke="#8a3ffc" stroke-width="3.2" x1="230" y1="430" x2="298.4" y2="430"/>
<line class="bar-bg" x1="328" y1="430" x2="392" y2="430"/><line class="support" stroke="#1f1f1f" stroke-width="3.2" x1="328" y1="430" x2="350.4" y2="430"/>
<text x="418" y="434">add water/site percep...</text>
<rect class="stripe" x="42" y="447" width="452" height="34"/>
<line class="row" x1="42" y1="480" x2="494" y2="480"/>
<text class="candidate" x="46" y="468">JTY027_26diF_benzamide</text>
<text class="risk" x="46" y="482">pose missing</text>
<line class="bar-bg" x1="230" y1="464" x2="306" y2="464"/><line class="" stroke="#8a3ffc" stroke-width="3.2" x1="230" y1="464" x2="298.4" y2="464"/>
<line class="bar-bg" x1="328" y1="464" x2="392" y2="464"/><line class="support" stroke="#1f1f1f" stroke-width="3.2" x1="328" y1="464" x2="350.4" y2="464"/>
<text x="418" y="468">context</text>
<line class="row" x1="42" y1="514" x2="494" y2="514"/>
<text class="candidate" x="46" y="502">JTY027_2F6Me_benzamide</text>
<text class="risk" x="46" y="516">pose missing</text>
<line class="bar-bg" x1="230" y1="498" x2="306" y2="498"/><line class="" stroke="#8a3ffc" stroke-width="3.2" x1="230" y1="498" x2="298.4" y2="498"/>
<line class="bar-bg" x1="328" y1="498" x2="392" y2="498"/><line class="support" stroke="#1f1f1f" stroke-width="3.2" x1="328" y1="498" x2="350.4" y2="498"/>
<text x="418" y="502">context</text>
<rect class="stripe" x="42" y="515" width="452" height="34"/>
<line class="row" x1="42" y1="548" x2="494" y2="548"/>
<text class="candidate" x="46" y="536">JTY027_2F_benzamide</text>
<text class="risk" x="46" y="550">pose missing</text>
<line class="bar-bg" x1="230" y1="532" x2="306" y2="532"/><line class="" stroke="#8a3ffc" stroke-width="3.2" x1="230" y1="532" x2="298.4" y2="532"/>
<line class="bar-bg" x1="328" y1="532" x2="392" y2="532"/><line class="support" stroke="#1f1f1f" stroke-width="3.2" x1="328" y1="532" x2="350.4" y2="532"/>
<text x="418" y="536">context</text>
<text class="head" x="520" y="104">Tail bridge</text>
<text class="note" x="520" y="122">Panel-local tail wins; add bridge edges before ranking.</text>
<line class="rule" x1="520" y1="134" x2="972" y2="134"/>
<text class="subhead" x="520" y="148">candidate</text>
<text class="subhead" x="708" y="148">mechanism</text>
<text class="subhead" x="806" y="148">support</text>
<text class="subhead" x="896" y="148">action</text>
<line class="row" x1="520" y1="174" x2="972" y2="174"/>
<text class="candidate" x="524" y="162">JTY023_pyrazine_tail</text>
<text class="panel" x="524" y="176">panel-local</text>
<line class="bar-bg" x1="708" y1="158" x2="784" y2="158"/><line class="" stroke="#0f766e" stroke-width="3.2" x1="708" y1="158" x2="782.5" y2="158"/>
<line class="bar-bg" x1="806" y1="158" x2="870" y2="158"/><line class="support" stroke="#1f1f1f" stroke-width="3.2" x1="806" y1="158" x2="858.8" y2="158"/>
<text x="896" y="162">queue RBFE or shared ...</text>
<rect class="stripe" x="520" y="175" width="452" height="34"/>
<line class="row" x1="520" y1="208" x2="972" y2="208"/>
<text class="candidate" x="524" y="196">JTY026_pyridyl_tail</text>
<text class="panel" x="524" y="210">panel-local</text>
<line class="bar-bg" x1="708" y1="192" x2="784" y2="192"/><line class="" stroke="#0f766e" stroke-width="3.2" x1="708" y1="192" x2="782.5" y2="192"/>
<line class="bar-bg" x1="806" y1="192" x2="870" y2="192"/><line class="support" stroke="#1f1f1f" stroke-width="3.2" x1="806" y1="192" x2="844.3" y2="192"/>
<text x="896" y="196">share reference</text>
<line class="row" x1="520" y1="242" x2="972" y2="242"/>
<text class="candidate" x="524" y="230">JTY023_imidazole_tail</text>
<text class="panel" x="524" y="244">panel-local</text>
<line class="bar-bg" x1="708" y1="226" x2="784" y2="226"/><line class="" stroke="#0f766e" stroke-width="3.2" x1="708" y1="226" x2="782.5" y2="226"/>
<line class="bar-bg" x1="806" y1="226" x2="870" y2="226"/><line class="support" stroke="#1f1f1f" stroke-width="3.2" x1="806" y1="226" x2="843.2" y2="226"/>
<text x="896" y="230">share reference</text>
<rect class="stripe" x="520" y="243" width="452" height="34"/>
<line class="row" x1="520" y1="276" x2="972" y2="276"/>
<text class="candidate" x="524" y="264">JTY026_triazine_tail</text>
<text class="panel" x="524" y="278">panel-local</text>
<line class="bar-bg" x1="708" y1="260" x2="784" y2="260"/><line class="" stroke="#0f766e" stroke-width="3.2" x1="708" y1="260" x2="782.5" y2="260"/>
<line class="bar-bg" x1="806" y1="260" x2="870" y2="260"/><line class="support" stroke="#1f1f1f" stroke-width="3.2" x1="806" y1="260" x2="832.8" y2="260"/>
<text x="896" y="264">share reference</text>
<line class="row" x1="520" y1="310" x2="972" y2="310"/>
<text class="candidate" x="524" y="298">JTY023_4F_pyridyl_tail</text>
<text class="risk" x="524" y="312">pose missing</text>
<line class="bar-bg" x1="708" y1="294" x2="784" y2="294"/><line class="" stroke="#0f766e" stroke-width="3.2" x1="708" y1="294" x2="768.8" y2="294"/>
<line class="bar-bg" x1="806" y1="294" x2="870" y2="294"/><line class="support" stroke="#1f1f1f" stroke-width="3.2" x1="806" y1="294" x2="864.8" y2="294"/>
<text x="896" y="298">recover docked pose b...</text>
<rect class="stripe" x="520" y="311" width="452" height="34"/>
<line class="row" x1="520" y1="344" x2="972" y2="344"/>
<text class="candidate" x="524" y="332">JTY023_4Br_pyridyl_tail</text>
<text class="risk" x="524" y="346">pose missing</text>
<line class="bar-bg" x1="708" y1="328" x2="784" y2="328"/><line class="" stroke="#0f766e" stroke-width="3.2" x1="708" y1="328" x2="768.8" y2="328"/>
<line class="bar-bg" x1="806" y1="328" x2="870" y2="328"/><line class="support" stroke="#1f1f1f" stroke-width="3.2" x1="806" y1="328" x2="864.0" y2="328"/>
<text x="896" y="332">recover docked pose b...</text>
<line class="row" x1="520" y1="378" x2="972" y2="378"/>
<text class="candidate" x="524" y="366">JTY023_5F_pyrimidyl_tail</text>
<text class="risk" x="524" y="380">pose missing</text>
<line class="bar-bg" x1="708" y1="362" x2="784" y2="362"/><line class="" stroke="#0f766e" stroke-width="3.2" x1="708" y1="362" x2="768.8" y2="362"/>
<line class="bar-bg" x1="806" y1="362" x2="870" y2="362"/><line class="support" stroke="#1f1f1f" stroke-width="3.2" x1="806" y1="362" x2="855.9" y2="362"/>
<text x="896" y="366">recover docked pose b...</text>
<rect class="stripe" x="520" y="379" width="452" height="34"/>
<line class="row" x1="520" y1="412" x2="972" y2="412"/>
<text class="candidate" x="524" y="400">JTY023_4CN_pyridyl_tail</text>
<text class="risk" x="524" y="414">pose missing</text>
<line class="bar-bg" x1="708" y1="396" x2="784" y2="396"/><line class="" stroke="#0f766e" stroke-width="3.2" x1="708" y1="396" x2="768.8" y2="396"/>
<line class="bar-bg" x1="806" y1="396" x2="870" y2="396"/><line class="support" stroke="#1f1f1f" stroke-width="3.2" x1="806" y1="396" x2="849.3" y2="396"/>
<text x="896" y="400">recover docked pose b...</text>
<line class="row" x1="520" y1="446" x2="972" y2="446"/>
<text class="candidate" x="524" y="434">JTY023_4OCF3_pyridyl_tail</text>
<text class="risk" x="524" y="448">pose missing</text>
<line class="bar-bg" x1="708" y1="430" x2="784" y2="430"/><line class="" stroke="#0f766e" stroke-width="3.2" x1="708" y1="430" x2="768.8" y2="430"/>
<line class="bar-bg" x1="806" y1="430" x2="870" y2="430"/><line class="support" stroke="#1f1f1f" stroke-width="3.2" x1="806" y1="430" x2="848.3" y2="430"/>
<text x="896" y="434">recover docked pose b...</text>
<rect class="stripe" x="520" y="447" width="452" height="34"/>
<line class="row" x1="520" y1="480" x2="972" y2="480"/>
<text class="candidate" x="524" y="468">JTY023_3Cl_pyridyl_tail</text>
<text class="risk" x="524" y="482">pose missing</text>
<line class="bar-bg" x1="708" y1="464" x2="784" y2="464"/><line class="" stroke="#0f766e" stroke-width="3.2" x1="708" y1="464" x2="768.8" y2="464"/>
<line class="bar-bg" x1="806" y1="464" x2="870" y2="464"/><line class="support" stroke="#1f1f1f" stroke-width="3.2" x1="806" y1="464" x2="847.6" y2="464"/>
<text x="896" y="468">recover docked pose b...</text>
<line class="row" x1="520" y1="514" x2="972" y2="514"/>
<text class="candidate" x="524" y="502">JTY023_4Br_pyrazinyl_tail</text>
<text class="risk" x="524" y="516">pose missing</text>
<line class="bar-bg" x1="708" y1="498" x2="784" y2="498"/><line class="" stroke="#0f766e" stroke-width="3.2" x1="708" y1="498" x2="768.8" y2="498"/>
<line class="bar-bg" x1="806" y1="498" x2="870" y2="498"/><line class="support" stroke="#1f1f1f" stroke-width="3.2" x1="806" y1="498" x2="842.0" y2="498"/>
<text x="896" y="502">recover docked pose b...</text>
<rect class="stripe" x="520" y="515" width="452" height="34"/>
<line class="row" x1="520" y1="548" x2="972" y2="548"/>
<text class="candidate" x="524" y="536">JTY023_4CF3_pyridyl_tail</text>
<text class="risk" x="524" y="550">pose missing</text>
<line class="bar-bg" x1="708" y1="532" x2="784" y2="532"/><line class="" stroke="#0f766e" stroke-width="3.2" x1="708" y1="532" x2="768.8" y2="532"/>
<line class="bar-bg" x1="806" y1="532" x2="870" y2="532"/><line class="support" stroke="#1f1f1f" stroke-width="3.2" x1="806" y1="532" x2="839.8" y2="532"/>
<text x="896" y="536">recover docked pose b...</text>
<text class="head" x="998" y="104">Solvent ledge</text>
<text class="note" x="998" y="122">Water-blind ledge probes; hydrate/site-map first.</text>
<line class="rule" x1="998" y1="134" x2="1450" y2="134"/>
<text class="subhead" x="998" y="148">candidate</text>
<text class="subhead" x="1186" y="148">mechanism</text>
<text class="subhead" x="1284" y="148">support</text>
<text class="subhead" x="1374" y="148">action</text>
<line class="row" x1="998" y1="174" x2="1450" y2="174"/>
<text class="candidate" x="1002" y="162">2CF3_benzamide</text>
<text class="risk" x="1002" y="176">pose missing</text>
<line class="bar-bg" x1="1186" y1="158" x2="1262" y2="158"/><line class="" stroke="#b45309" stroke-width="3.2" x1="1186" y1="158" x2="1255.9" y2="158"/>
<line class="bar-bg" x1="1284" y1="158" x2="1348" y2="158"/><line class="support" stroke="#1f1f1f" stroke-width="3.2" x1="1284" y1="158" x2="1336.2" y2="158"/>
<text x="1374" y="162">recover docked pose b...</text>
<rect class="stripe" x="998" y="175" width="452" height="34"/>
<line class="row" x1="998" y1="208" x2="1450" y2="208"/>
<text class="candidate" x="1002" y="196">2Cyano_benzamide</text>
<text class="water" x="1002" y="210">no waters</text>
<line class="bar-bg" x1="1186" y1="192" x2="1262" y2="192"/><line class="" stroke="#b45309" stroke-width="3.2" x1="1186" y1="192" x2="1255.9" y2="192"/>
<line class="bar-bg" x1="1284" y1="192" x2="1348" y2="192"/><line class="support" stroke="#1f1f1f" stroke-width="3.2" x1="1284" y1="192" x2="1306.4" y2="192"/>
<text x="1374" y="196">add water/site percep...</text>
<line class="row" x1="998" y1="242" x2="1450" y2="242"/>
<text class="candidate" x="1002" y="230">JTY023_4OCF3_pyridyl_tail</text>
<text class="risk" x="1002" y="244">pose missing</text>
<line class="bar-bg" x1="1186" y1="226" x2="1262" y2="226"/><line class="" stroke="#b45309" stroke-width="3.2" x1="1186" y1="226" x2="1224.0" y2="226"/>
<line class="bar-bg" x1="1284" y1="226" x2="1348" y2="226"/><line class="support" stroke="#1f1f1f" stroke-width="3.2" x1="1284" y1="226" x2="1326.3" y2="226"/>
<text x="1374" y="230">recover docked pose b...</text>
<rect class="stripe" x="998" y="243" width="452" height="34"/>
<line class="row" x1="998" y1="276" x2="1450" y2="276"/>
<text class="candidate" x="1002" y="264">JTY023_4CF3_pyridyl_tail</text>
<text class="risk" x="1002" y="278">pose missing</text>
<line class="bar-bg" x1="1186" y1="260" x2="1262" y2="260"/><line class="" stroke="#b45309" stroke-width="3.2" x1="1186" y1="260" x2="1224.0" y2="260"/>
<line class="bar-bg" x1="1284" y1="260" x2="1348" y2="260"/><line class="support" stroke="#1f1f1f" stroke-width="3.2" x1="1284" y1="260" x2="1317.8" y2="260"/>
<text x="1374" y="264">recover docked pose b...</text>
<line class="row" x1="998" y1="310" x2="1450" y2="310"/>
<text class="candidate" x="1002" y="298">2F6Me_benzamide</text>
<text class="risk" x="1002" y="312">pose missing</text>
<line class="bar-bg" x1="1186" y1="294" x2="1262" y2="294"/><line class="" stroke="#b45309" stroke-width="3.2" x1="1186" y1="294" x2="1202.7" y2="294"/>
<line class="bar-bg" x1="1284" y1="294" x2="1348" y2="294"/><line class="support" stroke="#1f1f1f" stroke-width="3.2" x1="1284" y1="294" x2="1345.0" y2="294"/>
<text x="1374" y="298">recover docked pose b...</text>
<rect class="stripe" x="998" y="311" width="452" height="34"/>
<line class="row" x1="998" y1="344" x2="1450" y2="344"/>
<text class="candidate" x="1002" y="332">2Me6Cl_benzamide</text>
<text class="risk" x="1002" y="346">pose missing</text>
<line class="bar-bg" x1="1186" y1="328" x2="1262" y2="328"/><line class="" stroke="#b45309" stroke-width="3.2" x1="1186" y1="328" x2="1202.7" y2="328"/>
<line class="bar-bg" x1="1284" y1="328" x2="1348" y2="328"/><line class="support" stroke="#1f1f1f" stroke-width="3.2" x1="1284" y1="328" x2="1340.3" y2="328"/>
<text x="1374" y="332">recover docked pose b...</text>
<line class="row" x1="998" y1="378" x2="1450" y2="378"/>
<text class="candidate" x="1002" y="366">2F_benzamide</text>
<text class="risk" x="1002" y="380">pose missing</text>
<line class="bar-bg" x1="1186" y1="362" x2="1262" y2="362"/><line class="" stroke="#b45309" stroke-width="3.2" x1="1186" y1="362" x2="1202.7" y2="362"/>
<line class="bar-bg" x1="1284" y1="362" x2="1348" y2="362"/><line class="support" stroke="#1f1f1f" stroke-width="3.2" x1="1284" y1="362" x2="1328.9" y2="362"/>
<text x="1374" y="366">recover docked pose b...</text>
<rect class="stripe" x="998" y="379" width="452" height="34"/>
<line class="row" x1="998" y1="412" x2="1450" y2="412"/>
<text class="candidate" x="1002" y="400">2Cl_benzamide</text>
<text class="risk" x="1002" y="414">pose missing</text>
<line class="bar-bg" x1="1186" y1="396" x2="1262" y2="396"/><line class="" stroke="#b45309" stroke-width="3.2" x1="1186" y1="396" x2="1202.7" y2="396"/>
<line class="bar-bg" x1="1284" y1="396" x2="1348" y2="396"/><line class="support" stroke="#1f1f1f" stroke-width="3.2" x1="1284" y1="396" x2="1328.0" y2="396"/>
<text x="1374" y="400">recover docked pose b...</text>
<line class="row" x1="998" y1="446" x2="1450" y2="446"/>
<text class="candidate" x="1002" y="434">26diMe_benzamide</text>
<text class="official" x="1002" y="448">rank 1</text>
<line class="bar-bg" x1="1186" y1="430" x2="1262" y2="430"/><line class="" stroke="#b45309" stroke-width="3.2" x1="1186" y1="430" x2="1193.6" y2="430"/>
<line class="bar-bg" x1="1284" y1="430" x2="1348" y2="430"/><line class="support" stroke="#1f1f1f" stroke-width="3.2" x1="1284" y1="430" x2="1348.0" y2="430"/>
<text x="1374" y="434">queue RBFE or shared ...</text>
<rect class="stripe" x="998" y="447" width="452" height="34"/>
<line class="row" x1="998" y1="480" x2="1450" y2="480"/>
<text class="candidate" x="1002" y="468">2Et_benzamide</text>
<text class="official" x="1002" y="482">rank 2</text>
<line class="bar-bg" x1="1186" y1="464" x2="1262" y2="464"/><line class="" stroke="#b45309" stroke-width="3.2" x1="1186" y1="464" x2="1193.6" y2="464"/>
<line class="bar-bg" x1="1284" y1="464" x2="1348" y2="464"/><line class="support" stroke="#1f1f1f" stroke-width="3.2" x1="1284" y1="464" x2="1346.9" y2="464"/>
<text x="1374" y="468">queue RBFE or shared ...</text>
<line class="row" x1="998" y1="514" x2="1450" y2="514"/>
<text class="candidate" x="1002" y="502">JTY027_aniline_diF</text>
<text class="official" x="1002" y="516">rank 3</text>
<line class="bar-bg" x1="1186" y1="498" x2="1262" y2="498"/><line class="" stroke="#b45309" stroke-width="3.2" x1="1186" y1="498" x2="1193.6" y2="498"/>
<line class="bar-bg" x1="1284" y1="498" x2="1348" y2="498"/><line class="support" stroke="#1f1f1f" stroke-width="3.2" x1="1284" y1="498" x2="1345.5" y2="498"/>
<text x="1374" y="502">queue RBFE or shared ...</text>
<rect class="stripe" x="998" y="515" width="452" height="34"/>
<line class="row" x1="998" y1="548" x2="1450" y2="548"/>
<text class="candidate" x="1002" y="536">JTY023_4F_pyridyl_tail</text>
<text class="risk" x="1002" y="550">pose missing</text>
<line class="bar-bg" x1="1186" y1="532" x2="1262" y2="532"/><line class="" stroke="#b45309" stroke-width="3.2" x1="1186" y1="532" x2="1193.6" y2="532"/>
<line class="bar-bg" x1="1284" y1="532" x2="1348" y2="532"/><line class="support" stroke="#1f1f1f" stroke-width="3.2" x1="1284" y1="532" x2="1342.8" y2="532"/>
<text x="1374" y="536">recover docked pose b...</text>
<text class="note" x="46" y="640">This map is for explanation and triage. Promotion still requires a shared pairwise reference/closed graph and hydrated evidence for solvent-ledge claims.</text>
</svg>
