<svg xmlns="http://www.w3.org/2000/svg" width="1160" height="760" viewBox="0 0 1160 760">
<style>text{font-family:Arial,sans-serif;font-size:11px;fill:#242424}.axis{stroke:#333}.guide{stroke:#e7e5e4}.edge{stroke:#5d6670;stroke-width:1.45;opacity:.46}.pair{stroke:#9a3412;stroke-width:2.35;opacity:.82}.label{font-size:9.5px}.note{fill:#666;font-size:12px}</style>
<rect width="100%" height="100%" fill="#fff"/>
<text x="34" y="30" style="font-size:17px">Observed pairwise free-energy chemistry map: fingerprint similarity projection</text>
<text class="note" x="34" y="52">Nodes: 66 observed runtime/panel ligands; fingerprints: 58. X = similarity to JTY027_aniline_diF_2Me_benzamide; Y = similarity to JTY023_pyrazine_tail.</text>
<line class="guide" x1="90.0" y1="88" x2="90.0" y2="650"/>
<line class="guide" x1="90" y1="650.0" x2="1080" y2="650.0"/>
<text class="note" x="82.0" y="684">0.00</text>
<text class="note" x="38" y="654.0">0.00</text>
<line class="guide" x1="337.5" y1="88" x2="337.5" y2="650"/>
<line class="guide" x1="90" y1="515.0" x2="1080" y2="515.0"/>
<text class="note" x="329.5" y="684">0.25</text>
<text class="note" x="38" y="519.0">0.25</text>
<line class="guide" x1="585.0" y1="88" x2="585.0" y2="650"/>
<line class="guide" x1="90" y1="380.0" x2="1080" y2="380.0"/>
<text class="note" x="577.0" y="684">0.50</text>
<text class="note" x="38" y="384.0">0.50</text>
<line class="guide" x1="832.5" y1="88" x2="832.5" y2="650"/>
<line class="guide" x1="90" y1="245.0" x2="1080" y2="245.0"/>
<text class="note" x="824.5" y="684">0.75</text>
<text class="note" x="38" y="249.0">0.75</text>
<line class="guide" x1="1080.0" y1="88" x2="1080.0" y2="650"/>
<line class="guide" x1="90" y1="110.0" x2="1080" y2="110.0"/>
<text class="note" x="1072.0" y="684">1.00</text>
<text class="note" x="38" y="114.0">1.00</text>
<text class="note" x="470.0" y="724">Tanimoto similarity to winner-family anchor</text>
<text class="note" transform="translate(16 470) rotate(-90)">Tanimoto similarity to tail anchor</text>
<line class="edge" x1="324.6" y1="239.9" x2="320.1" y2="244.4"/>
<line class="edge" x1="324.6" y1="239.9" x2="313.2" y2="260.7"/>
<line class="edge" x1="324.6" y1="239.9" x2="287.3" y2="275.6"/>
<line class="edge" x1="324.6" y1="239.9" x2="311.7" y2="238.5"/>
<line class="edge" x1="324.6" y1="239.9" x2="331.3" y2="251.9"/>
<line class="edge" x1="320.1" y1="244.4" x2="313.2" y2="260.7"/>
<line class="edge" x1="320.1" y1="244.4" x2="287.3" y2="275.6"/>
<line class="edge" x1="320.1" y1="244.4" x2="311.7" y2="238.5"/>
<line class="edge" x1="320.1" y1="244.4" x2="331.3" y2="251.9"/>
<line class="edge" x1="313.2" y1="260.7" x2="287.3" y2="275.6"/>
<line class="edge" x1="313.2" y1="260.7" x2="311.7" y2="238.5"/>
<line class="edge" x1="313.2" y1="260.7" x2="331.3" y2="251.9"/>
<line class="edge" x1="287.3" y1="275.6" x2="311.7" y2="238.5"/>
<line class="edge" x1="287.3" y1="275.6" x2="331.3" y2="251.9"/>
<line class="edge" x1="311.7" y1="238.5" x2="331.3" y2="251.9"/>
<line class="edge" x1="324.6" y1="239.9" x2="320.1" y2="244.4"/>
<line class="edge" x1="324.6" y1="239.9" x2="313.2" y2="260.7"/>
<line class="edge" x1="324.6" y1="239.9" x2="287.3" y2="275.6"/>
<line class="edge" x1="324.6" y1="239.9" x2="311.7" y2="238.5"/>
<line class="edge" x1="324.6" y1="239.9" x2="331.3" y2="251.9"/>
<line class="edge" x1="320.1" y1="244.4" x2="313.2" y2="260.7"/>
<line class="edge" x1="320.1" y1="244.4" x2="287.3" y2="275.6"/>
<line class="edge" x1="320.1" y1="244.4" x2="311.7" y2="238.5"/>
<line class="edge" x1="320.1" y1="244.4" x2="331.3" y2="251.9"/>
<line class="edge" x1="313.2" y1="260.7" x2="287.3" y2="275.6"/>
<line class="edge" x1="313.2" y1="260.7" x2="311.7" y2="238.5"/>
<line class="edge" x1="313.2" y1="260.7" x2="331.3" y2="251.9"/>
<line class="edge" x1="287.3" y1="275.6" x2="311.7" y2="238.5"/>
<line class="edge" x1="287.3" y1="275.6" x2="331.3" y2="251.9"/>
<line class="edge" x1="311.7" y1="238.5" x2="331.3" y2="251.9"/>
<line class="edge" x1="324.6" y1="239.9" x2="320.1" y2="244.4"/>
<line class="edge" x1="324.6" y1="239.9" x2="313.2" y2="260.7"/>
<line class="edge" x1="324.6" y1="239.9" x2="287.3" y2="275.6"/>
<line class="edge" x1="324.6" y1="239.9" x2="311.7" y2="238.5"/>
<line class="edge" x1="324.6" y1="239.9" x2="331.3" y2="251.9"/>
<line class="edge" x1="320.1" y1="244.4" x2="313.2" y2="260.7"/>
<line class="edge" x1="320.1" y1="244.4" x2="287.3" y2="275.6"/>
<line class="edge" x1="320.1" y1="244.4" x2="311.7" y2="238.5"/>
<line class="edge" x1="320.1" y1="244.4" x2="331.3" y2="251.9"/>
<line class="edge" x1="313.2" y1="260.7" x2="287.3" y2="275.6"/>
<line class="edge" x1="313.2" y1="260.7" x2="311.7" y2="238.5"/>
<line class="edge" x1="313.2" y1="260.7" x2="331.3" y2="251.9"/>
<line class="edge" x1="287.3" y1="275.6" x2="311.7" y2="238.5"/>
<line class="edge" x1="287.3" y1="275.6" x2="331.3" y2="251.9"/>
<line class="edge" x1="311.7" y1="238.5" x2="331.3" y2="251.9"/>
<line class="edge" x1="324.6" y1="239.9" x2="320.1" y2="244.4"/>
<line class="edge" x1="324.6" y1="239.9" x2="313.2" y2="260.7"/>
<line class="edge" x1="324.6" y1="239.9" x2="287.3" y2="275.6"/>
<line class="edge" x1="324.6" y1="239.9" x2="311.7" y2="238.5"/>
<line class="edge" x1="324.6" y1="239.9" x2="331.3" y2="251.9"/>
<line class="edge" x1="320.1" y1="244.4" x2="313.2" y2="260.7"/>
<line class="edge" x1="320.1" y1="244.4" x2="287.3" y2="275.6"/>
<line class="edge" x1="320.1" y1="244.4" x2="311.7" y2="238.5"/>
<line class="edge" x1="320.1" y1="244.4" x2="331.3" y2="251.9"/>
<line class="edge" x1="313.2" y1="260.7" x2="287.3" y2="275.6"/>
<line class="edge" x1="313.2" y1="260.7" x2="311.7" y2="238.5"/>
<line class="edge" x1="313.2" y1="260.7" x2="331.3" y2="251.9"/>
<line class="edge" x1="287.3" y1="275.6" x2="311.7" y2="238.5"/>
<line class="edge" x1="287.3" y1="275.6" x2="331.3" y2="251.9"/>
<line class="edge" x1="311.7" y1="238.5" x2="331.3" y2="251.9"/>
<line class="edge" x1="324.6" y1="239.9" x2="320.1" y2="244.4"/>
<line class="edge" x1="324.6" y1="239.9" x2="313.2" y2="260.7"/>
<line class="edge" x1="324.6" y1="239.9" x2="287.3" y2="275.6"/>
<line class="edge" x1="324.6" y1="239.9" x2="311.7" y2="238.5"/>
<line class="edge" x1="324.6" y1="239.9" x2="331.3" y2="251.9"/>
<line class="edge" x1="320.1" y1="244.4" x2="313.2" y2="260.7"/>
<line class="edge" x1="320.1" y1="244.4" x2="287.3" y2="275.6"/>
<line class="edge" x1="320.1" y1="244.4" x2="311.7" y2="238.5"/>
<line class="edge" x1="320.1" y1="244.4" x2="331.3" y2="251.9"/>
<line class="edge" x1="313.2" y1="260.7" x2="287.3" y2="275.6"/>
<line class="edge" x1="313.2" y1="260.7" x2="311.7" y2="238.5"/>
<line class="edge" x1="313.2" y1="260.7" x2="331.3" y2="251.9"/>
<line class="edge" x1="287.3" y1="275.6" x2="311.7" y2="238.5"/>
<line class="edge" x1="287.3" y1="275.6" x2="331.3" y2="251.9"/>
<line class="edge" x1="311.7" y1="238.5" x2="331.3" y2="251.9"/>
<line class="edge" x1="324.6" y1="239.9" x2="300.3" y2="248.0"/>
<line class="edge" x1="324.6" y1="239.9" x2="306.5" y2="220.0"/>
<line class="edge" x1="324.6" y1="239.9" x2="297.9" y2="255.5"/>
<line class="edge" x1="324.6" y1="239.9" x2="317.7" y2="226.4"/>
<line class="edge" x1="324.6" y1="239.9" x2="320.1" y2="244.4"/>
<line class="edge" x1="324.6" y1="239.9" x2="313.2" y2="260.7"/>
<line class="edge" x1="324.6" y1="239.9" x2="287.3" y2="275.6"/>
<line class="edge" x1="324.6" y1="239.9" x2="311.7" y2="238.5"/>
<line class="edge" x1="324.6" y1="239.9" x2="331.3" y2="251.9"/>
<line class="edge" x1="300.3" y1="248.0" x2="306.5" y2="220.0"/>
<line class="edge" x1="300.3" y1="248.0" x2="297.9" y2="255.5"/>
<line class="edge" x1="300.3" y1="248.0" x2="317.7" y2="226.4"/>
<line class="edge" x1="300.3" y1="248.0" x2="320.1" y2="244.4"/>
<line class="edge" x1="300.3" y1="248.0" x2="313.2" y2="260.7"/>
<line class="edge" x1="300.3" y1="248.0" x2="287.3" y2="275.6"/>
<line class="edge" x1="300.3" y1="248.0" x2="311.7" y2="238.5"/>
<line class="edge" x1="300.3" y1="248.0" x2="331.3" y2="251.9"/>
<line class="edge" x1="306.5" y1="220.0" x2="297.9" y2="255.5"/>
<line class="edge" x1="306.5" y1="220.0" x2="317.7" y2="226.4"/>
<line class="edge" x1="306.5" y1="220.0" x2="320.1" y2="244.4"/>
<line class="edge" x1="306.5" y1="220.0" x2="313.2" y2="260.7"/>
<line class="edge" x1="306.5" y1="220.0" x2="287.3" y2="275.6"/>
<line class="edge" x1="306.5" y1="220.0" x2="311.7" y2="238.5"/>
<line class="edge" x1="306.5" y1="220.0" x2="331.3" y2="251.9"/>
<line class="edge" x1="297.9" y1="255.5" x2="317.7" y2="226.4"/>
<line class="edge" x1="297.9" y1="255.5" x2="320.1" y2="244.4"/>
<line class="edge" x1="297.9" y1="255.5" x2="313.2" y2="260.7"/>
<line class="edge" x1="297.9" y1="255.5" x2="287.3" y2="275.6"/>
<line class="edge" x1="297.9" y1="255.5" x2="311.7" y2="238.5"/>
<line class="edge" x1="297.9" y1="255.5" x2="331.3" y2="251.9"/>
<line class="edge" x1="317.7" y1="226.4" x2="320.1" y2="244.4"/>
<line class="edge" x1="317.7" y1="226.4" x2="313.2" y2="260.7"/>
<line class="edge" x1="317.7" y1="226.4" x2="287.3" y2="275.6"/>
<line class="edge" x1="317.7" y1="226.4" x2="311.7" y2="238.5"/>
<line class="edge" x1="317.7" y1="226.4" x2="331.3" y2="251.9"/>
<line class="edge" x1="320.1" y1="244.4" x2="313.2" y2="260.7"/>
<line class="edge" x1="320.1" y1="244.4" x2="287.3" y2="275.6"/>
<line class="edge" x1="320.1" y1="244.4" x2="311.7" y2="238.5"/>
<line class="edge" x1="320.1" y1="244.4" x2="331.3" y2="251.9"/>
<line class="edge" x1="313.2" y1="260.7" x2="287.3" y2="275.6"/>
<line class="edge" x1="313.2" y1="260.7" x2="311.7" y2="238.5"/>
<line class="edge" x1="313.2" y1="260.7" x2="331.3" y2="251.9"/>
<line class="edge" x1="287.3" y1="275.6" x2="311.7" y2="238.5"/>
<line class="edge" x1="287.3" y1="275.6" x2="331.3" y2="251.9"/>
<line class="edge" x1="311.7" y1="238.5" x2="331.3" y2="251.9"/>
<line class="edge" x1="317.7" y1="226.4" x2="306.5" y2="220.0"/>
<line class="edge" x1="317.7" y1="226.4" x2="329.0" y2="114.5"/>
<line class="edge" x1="317.7" y1="226.4" x2="322.2" y2="226.4"/>
<line class="edge" x1="317.7" y1="226.4" x2="335.8" y2="223.7"/>
<line class="edge" x1="317.7" y1="226.4" x2="324.6" y2="239.9"/>
<line class="edge" x1="317.7" y1="226.4" x2="360.9" y2="244.4"/>
<line class="edge" x1="317.7" y1="226.4" x2="297.9" y2="255.5"/>
<line class="edge" x1="317.7" y1="226.4" x2="300.3" y2="248.0"/>
<line class="edge" x1="317.7" y1="226.4" x2="322.2" y2="249.7"/>
<line class="edge" x1="306.5" y1="220.0" x2="329.0" y2="114.5"/>
<line class="edge" x1="306.5" y1="220.0" x2="322.2" y2="226.4"/>
<line class="edge" x1="306.5" y1="220.0" x2="335.8" y2="223.7"/>
<line class="edge" x1="306.5" y1="220.0" x2="324.6" y2="239.9"/>
<line class="edge" x1="306.5" y1="220.0" x2="360.9" y2="244.4"/>
<line class="edge" x1="306.5" y1="220.0" x2="297.9" y2="255.5"/>
<line class="edge" x1="306.5" y1="220.0" x2="300.3" y2="248.0"/>
<line class="edge" x1="306.5" y1="220.0" x2="322.2" y2="249.7"/>
<line class="edge" x1="329.0" y1="114.5" x2="322.2" y2="226.4"/>
<line class="edge" x1="329.0" y1="114.5" x2="335.8" y2="223.7"/>
<line class="edge" x1="329.0" y1="114.5" x2="324.6" y2="239.9"/>
<line class="edge" x1="329.0" y1="114.5" x2="360.9" y2="244.4"/>
<line class="edge" x1="329.0" y1="114.5" x2="297.9" y2="255.5"/>
<line class="edge" x1="329.0" y1="114.5" x2="300.3" y2="248.0"/>
<line class="edge" x1="329.0" y1="114.5" x2="322.2" y2="249.7"/>
<line class="edge" x1="322.2" y1="226.4" x2="335.8" y2="223.7"/>
<line class="edge" x1="322.2" y1="226.4" x2="324.6" y2="239.9"/>
<line class="edge" x1="322.2" y1="226.4" x2="360.9" y2="244.4"/>
<line class="edge" x1="322.2" y1="226.4" x2="297.9" y2="255.5"/>
<line class="edge" x1="322.2" y1="226.4" x2="300.3" y2="248.0"/>
<line class="edge" x1="322.2" y1="226.4" x2="322.2" y2="249.7"/>
<line class="edge" x1="335.8" y1="223.7" x2="324.6" y2="239.9"/>
<line class="edge" x1="335.8" y1="223.7" x2="360.9" y2="244.4"/>
<line class="edge" x1="335.8" y1="223.7" x2="297.9" y2="255.5"/>
<line class="edge" x1="335.8" y1="223.7" x2="300.3" y2="248.0"/>
<line class="edge" x1="335.8" y1="223.7" x2="322.2" y2="249.7"/>
<line class="edge" x1="324.6" y1="239.9" x2="360.9" y2="244.4"/>
<line class="edge" x1="324.6" y1="239.9" x2="297.9" y2="255.5"/>
<line class="edge" x1="324.6" y1="239.9" x2="300.3" y2="248.0"/>
<line class="edge" x1="324.6" y1="239.9" x2="322.2" y2="249.7"/>
<line class="edge" x1="360.9" y1="244.4" x2="297.9" y2="255.5"/>
<line class="edge" x1="360.9" y1="244.4" x2="300.3" y2="248.0"/>
<line class="edge" x1="360.9" y1="244.4" x2="322.2" y2="249.7"/>
<line class="edge" x1="297.9" y1="255.5" x2="300.3" y2="248.0"/>
<line class="edge" x1="297.9" y1="255.5" x2="322.2" y2="249.7"/>
<line class="edge" x1="300.3" y1="248.0" x2="322.2" y2="249.7"/>
<line class="edge" x1="524.5" y1="477.9" x2="317.7" y2="226.4"/>
<line class="edge" x1="524.5" y1="477.9" x2="506.2" y2="499.4"/>
<line class="edge" x1="524.5" y1="477.9" x2="322.2" y2="226.4"/>
<line class="edge" x1="524.5" y1="477.9" x2="306.5" y2="220.0"/>
<line class="edge" x1="524.5" y1="477.9" x2="329.0" y2="114.5"/>
<line class="edge" x1="524.5" y1="477.9" x2="501.5" y2="502.6"/>
<line class="edge" x1="524.5" y1="477.9" x2="335.8" y2="223.7"/>
<line class="edge" x1="317.7" y1="226.4" x2="506.2" y2="499.4"/>
<line class="edge" x1="317.7" y1="226.4" x2="322.2" y2="226.4"/>
<line class="edge" x1="317.7" y1="226.4" x2="306.5" y2="220.0"/>
<line class="edge" x1="317.7" y1="226.4" x2="329.0" y2="114.5"/>
<line class="edge" x1="317.7" y1="226.4" x2="501.5" y2="502.6"/>
<line class="edge" x1="317.7" y1="226.4" x2="335.8" y2="223.7"/>
<line class="edge" x1="506.2" y1="499.4" x2="322.2" y2="226.4"/>
<line class="edge" x1="506.2" y1="499.4" x2="306.5" y2="220.0"/>
<line class="edge" x1="506.2" y1="499.4" x2="329.0" y2="114.5"/>
<line class="edge" x1="506.2" y1="499.4" x2="501.5" y2="502.6"/>
<line class="edge" x1="506.2" y1="499.4" x2="335.8" y2="223.7"/>
<line class="edge" x1="322.2" y1="226.4" x2="306.5" y2="220.0"/>
<line class="edge" x1="322.2" y1="226.4" x2="329.0" y2="114.5"/>
<line class="edge" x1="322.2" y1="226.4" x2="501.5" y2="502.6"/>
<line class="edge" x1="322.2" y1="226.4" x2="335.8" y2="223.7"/>
<line class="edge" x1="306.5" y1="220.0" x2="329.0" y2="114.5"/>
<line class="edge" x1="306.5" y1="220.0" x2="501.5" y2="502.6"/>
<line class="edge" x1="306.5" y1="220.0" x2="335.8" y2="223.7"/>
<line class="edge" x1="329.0" y1="114.5" x2="501.5" y2="502.6"/>
<line class="edge" x1="329.0" y1="114.5" x2="335.8" y2="223.7"/>
<line class="edge" x1="501.5" y1="502.6" x2="335.8" y2="223.7"/>
<line class="edge" x1="524.5" y1="477.9" x2="317.7" y2="226.4"/>
<line class="edge" x1="524.5" y1="477.9" x2="497.0" y2="507.1"/>
<line class="edge" x1="524.5" y1="477.9" x2="506.2" y2="499.4"/>
<line class="edge" x1="524.5" y1="477.9" x2="322.2" y2="226.4"/>
<line class="edge" x1="524.5" y1="477.9" x2="306.5" y2="220.0"/>
<line class="edge" x1="524.5" y1="477.9" x2="329.0" y2="114.5"/>
<line class="edge" x1="524.5" y1="477.9" x2="501.5" y2="502.6"/>
<line class="edge" x1="524.5" y1="477.9" x2="510.6" y2="498.1"/>
<line class="edge" x1="524.5" y1="477.9" x2="335.8" y2="223.7"/>
<line class="edge" x1="317.7" y1="226.4" x2="497.0" y2="507.1"/>
<line class="edge" x1="317.7" y1="226.4" x2="506.2" y2="499.4"/>
<line class="edge" x1="317.7" y1="226.4" x2="322.2" y2="226.4"/>
<line class="edge" x1="317.7" y1="226.4" x2="306.5" y2="220.0"/>
<line class="edge" x1="317.7" y1="226.4" x2="329.0" y2="114.5"/>
<line class="edge" x1="317.7" y1="226.4" x2="501.5" y2="502.6"/>
<line class="edge" x1="317.7" y1="226.4" x2="510.6" y2="498.1"/>
<line class="edge" x1="317.7" y1="226.4" x2="335.8" y2="223.7"/>
<line class="edge" x1="497.0" y1="507.1" x2="506.2" y2="499.4"/>
<line class="edge" x1="497.0" y1="507.1" x2="322.2" y2="226.4"/>
<line class="edge" x1="497.0" y1="507.1" x2="306.5" y2="220.0"/>
<line class="edge" x1="497.0" y1="507.1" x2="329.0" y2="114.5"/>
<line class="edge" x1="497.0" y1="507.1" x2="501.5" y2="502.6"/>
<line class="edge" x1="497.0" y1="507.1" x2="510.6" y2="498.1"/>
<line class="edge" x1="497.0" y1="507.1" x2="335.8" y2="223.7"/>
<line class="edge" x1="506.2" y1="499.4" x2="322.2" y2="226.4"/>
<line class="edge" x1="506.2" y1="499.4" x2="306.5" y2="220.0"/>
<line class="edge" x1="506.2" y1="499.4" x2="329.0" y2="114.5"/>
<line class="edge" x1="506.2" y1="499.4" x2="501.5" y2="502.6"/>
<line class="edge" x1="506.2" y1="499.4" x2="510.6" y2="498.1"/>
<line class="edge" x1="506.2" y1="499.4" x2="335.8" y2="223.7"/>
<line class="edge" x1="322.2" y1="226.4" x2="306.5" y2="220.0"/>
<line class="edge" x1="322.2" y1="226.4" x2="329.0" y2="114.5"/>
<line class="edge" x1="322.2" y1="226.4" x2="501.5" y2="502.6"/>
<line class="edge" x1="322.2" y1="226.4" x2="510.6" y2="498.1"/>
<line class="edge" x1="322.2" y1="226.4" x2="335.8" y2="223.7"/>
<line class="edge" x1="306.5" y1="220.0" x2="329.0" y2="114.5"/>
<line class="edge" x1="306.5" y1="220.0" x2="501.5" y2="502.6"/>
<line class="edge" x1="306.5" y1="220.0" x2="510.6" y2="498.1"/>
<line class="edge" x1="306.5" y1="220.0" x2="335.8" y2="223.7"/>
<line class="edge" x1="329.0" y1="114.5" x2="501.5" y2="502.6"/>
<line class="edge" x1="329.0" y1="114.5" x2="510.6" y2="498.1"/>
<line class="edge" x1="329.0" y1="114.5" x2="335.8" y2="223.7"/>
<line class="edge" x1="501.5" y1="502.6" x2="510.6" y2="498.1"/>
<line class="edge" x1="501.5" y1="502.6" x2="335.8" y2="223.7"/>
<line class="edge" x1="510.6" y1="498.1" x2="335.8" y2="223.7"/>
<circle cx="499.2" cy="474.4" r="4.2" fill="#1f77b4" stroke="#fff" stroke-width="1.1"/>
<text class="label" text-anchor="start" x="506.4" y="477.4">2Br5F_pyrimidyl_tail</text>
<circle cx="497.2" cy="470.8" r="4.2" fill="#1f77b4" stroke="#fff" stroke-width="1.1"/>
<text class="label" text-anchor="start" x="504.4" y="473.8">2Cl5F_pyrimidyl_tail</text>
<circle cx="506.5" cy="468.9" r="4.2" fill="#1f77b4" stroke="#fff" stroke-width="1.1"/>
<text class="label" text-anchor="start" x="513.7" y="471.9">2F5F_pyrimidyl_tail</text>
<circle cx="313.2" cy="260.7" r="5.8" fill="#1f77b4" stroke="#fff" stroke-width="1.1"/>
<text class="label" text-anchor="start" x="322.0" y="263.7">JTY023_3Br_pyridyl_tail</text>
<circle cx="322.2" cy="249.7" r="5.8" fill="#1f77b4" stroke="#fff" stroke-width="1.1"/>
<text class="label" text-anchor="start" x="331.0" y="252.7">JTY023_3Cl_pyridyl_tail</text>
<circle cx="331.3" cy="251.9" r="5.8" fill="#1f77b4" stroke="#fff" stroke-width="1.1"/>
<text class="label" text-anchor="start" x="340.1" y="254.9">4Br_pyrazinyl_tail</text>
<circle cx="324.6" cy="239.9" r="5.8" fill="#1f77b4" stroke="#fff" stroke-width="1.1"/>
<text class="label" text-anchor="start" x="333.4" y="242.9">JTY023_4Br_pyridyl_tail</text>
<circle cx="311.7" cy="238.5" r="5.8" fill="#1f77b4" stroke="#fff" stroke-width="1.1"/>
<text class="label" text-anchor="start" x="320.5" y="241.5">4Br_pyrimidyl_tail</text>
<circle cx="297.9" cy="255.5" r="5.8" fill="#1f77b4" stroke="#fff" stroke-width="1.1"/>
<text class="label" text-anchor="start" x="306.7" y="258.5">JTY023_4CF3_pyridyl_tail</text>
<circle cx="300.3" cy="248.0" r="5.8" fill="#1f77b4" stroke="#fff" stroke-width="1.1"/>
<text class="label" text-anchor="start" x="309.1" y="251.0">JTY023_4CN_pyridyl_tail</text>
<circle cx="317.7" cy="226.4" r="5.8" fill="#1f77b4" stroke="#fff" stroke-width="1.1"/>
<text class="label" text-anchor="start" x="326.5" y="229.4">JTY023_4Cl_pyridyl_tail</text>
<circle cx="322.2" cy="226.4" r="5.8" fill="#1f77b4" stroke="#fff" stroke-width="1.1"/>
<text class="label" text-anchor="start" x="331.0" y="229.4">JTY023_4F_pyridyl_tail</text>
<circle cx="320.1" cy="244.4" r="5.8" fill="#1f77b4" stroke="#fff" stroke-width="1.1"/>
<text class="label" text-anchor="start" x="328.9" y="247.4">JTY023_4I_pyridyl_tail</text>
<circle cx="360.9" cy="244.4" r="5.8" fill="#1f77b4" stroke="#fff" stroke-width="1.1"/>
<text class="label" text-anchor="start" x="369.7" y="247.4">JTY023_4Me_pyridyl_tail</text>
<circle cx="287.3" cy="275.6" r="5.8" fill="#1f77b4" stroke="#fff" stroke-width="1.1"/>
<text class="label" text-anchor="start" x="296.1" y="278.6">4OCF3_pyridyl_tail</text>
<circle cx="513.4" cy="479.8" r="4.2" fill="#1f77b4" stroke="#fff" stroke-width="1.1"/>
<text class="label" text-anchor="start" x="520.6" y="482.8">5Br_pyrimidyl_tail</text>
<circle cx="488.0" cy="485.2" r="4.2" fill="#1f77b4" stroke="#fff" stroke-width="1.1"/>
<text class="label" text-anchor="start" x="495.2" y="488.2">5CF3_pyrimidyl_tail</text>
<circle cx="488.2" cy="471.9" r="4.2" fill="#1f77b4" stroke="#fff" stroke-width="1.1"/>
<text class="label" text-anchor="start" x="495.4" y="474.9">5CN_pyrimidyl_tail</text>
<circle cx="515.5" cy="470.0" r="4.2" fill="#1f77b4" stroke="#fff" stroke-width="1.1"/>
<text class="label" text-anchor="start" x="522.7" y="473.0">5Cl_pyrimidyl_tail</text>
<circle cx="537.8" cy="483.4" r="4.2" fill="#1f77b4" stroke="#fff" stroke-width="1.1"/>
<text class="label" text-anchor="start" x="545.0" y="486.4">5Et_pyrimidyl_tail</text>
<circle cx="524.5" cy="477.9" r="5.8" fill="#1f77b4" stroke="#fff" stroke-width="1.1"/>
<text class="label" text-anchor="start" x="533.3" y="480.9">JTY023_5F_pyrimidyl_tail</text>
<circle cx="488.1" cy="486.1" r="4.2" fill="#1f77b4" stroke="#fff" stroke-width="1.1"/>
<text class="label" text-anchor="start" x="495.3" y="489.1">JTY023_5I_pyrimidyl_tail</text>
<circle cx="531.0" cy="489.7" r="4.2" fill="#1f77b4" stroke="#fff" stroke-width="1.1"/>
<text class="label" text-anchor="start" x="538.2" y="492.7">5Me_pyrimidyl_tail</text>
<circle cx="475.2" cy="494.7" r="4.2" fill="#1f77b4" stroke="#fff" stroke-width="1.1"/>
<text class="label" text-anchor="start" x="482.4" y="497.7">5OCF3_pyrimidyl_tail</text>
<circle cx="506.2" cy="499.4" r="7.0" fill="#1f77b4" stroke="#fff" stroke-width="1.1"/>
<text class="label" text-anchor="start" x="516.2" y="502.4">JTY023_imidazole_tail</text>
<circle cx="501.5" cy="502.6" r="5.8" fill="#1f77b4" stroke="#fff" stroke-width="1.1"/>
<text class="label" text-anchor="start" x="510.3" y="505.6">JTY023_oxadiazole_tail</text>
<circle cx="329.0" cy="114.5" r="7.0" fill="#1f77b4" stroke="#fff" stroke-width="1.1"/>
<text class="label" text-anchor="start" x="339.0" y="117.5">JTY023_pyrazine_tail</text>
<circle cx="526.2" cy="495.3" r="4.2" fill="#1f77b4" stroke="#fff" stroke-width="1.1"/>
<text class="label" text-anchor="start" x="533.4" y="498.3">JTY023_pyrazole_tail</text>
<circle cx="504.0" cy="505.5" r="4.2" fill="#1f77b4" stroke="#fff" stroke-width="1.1"/>
<text class="label" text-anchor="start" x="511.2" y="508.5">JTY023_pyridazine_tail</text>
<circle cx="513.4" cy="496.4" r="4.2" fill="#1f77b4" stroke="#fff" stroke-width="1.1"/>
<text class="label" text-anchor="start" x="520.6" y="499.4">JTY023_pyridyl_tail</text>
<circle cx="508.2" cy="477.0" r="4.2" fill="#1f77b4" stroke="#fff" stroke-width="1.1"/>
<text class="label" text-anchor="start" x="515.4" y="480.0">JTY023_pyrimidine_tail</text>
<circle cx="497.0" cy="507.1" r="5.8" fill="#1f77b4" stroke="#fff" stroke-width="1.1"/>
<text class="label" text-anchor="start" x="505.8" y="510.1">JTY023_tetrazole_tail</text>
<circle cx="515.5" cy="494.7" r="4.2" fill="#1f77b4" stroke="#fff" stroke-width="1.1"/>
<text class="label" text-anchor="start" x="522.7" y="497.7">JTY023_thiazole_tail</text>
<circle cx="510.6" cy="498.1" r="5.8" fill="#1f77b4" stroke="#fff" stroke-width="1.1"/>
<text class="label" text-anchor="start" x="519.4" y="501.1">JTY023_triazole_tail</text>
<circle cx="538.7" cy="513.2" r="4.2" fill="#9467bd" stroke="#fff" stroke-width="1.1"/>
<text class="label" text-anchor="start" x="545.9" y="516.2">JTY024_NMe_formamide_cap</text>
<circle cx="505.5" cy="492.2" r="4.2" fill="#9467bd" stroke="#fff" stroke-width="1.1"/>
<text class="label" text-anchor="start" x="512.7" y="495.2">JTY024_cyclopropanecarb...</text>
<circle cx="508.5" cy="487.5" r="4.2" fill="#9467bd" stroke="#fff" stroke-width="1.1"/>
<text class="label" text-anchor="start" x="515.7" y="490.5">JTY024_formamide_cap</text>
<circle cx="501.8" cy="485.9" r="4.2" fill="#9467bd" stroke="#fff" stroke-width="1.1"/>
<text class="label" text-anchor="start" x="508.9" y="488.9">JTY024_hydroxymethyl_cap</text>
<circle cx="534.9" cy="492.2" r="4.2" fill="#9467bd" stroke="#fff" stroke-width="1.1"/>
<text class="label" text-anchor="start" x="542.1" y="495.2">JTY024_urea_cap</text>
<circle cx="372.9" cy="518.5" r="4.2" fill="#2ca02c" stroke="#fff" stroke-width="1.1"/>
<text class="label" text-anchor="start" x="380.1" y="521.5">JTY026_monoF_aniline</text>
<circle cx="521.7" cy="481.8" r="4.2" fill="#2ca02c" stroke="#fff" stroke-width="1.1"/>
<text class="label" text-anchor="start" x="528.9" y="484.8">JTY026_oxazole_tail</text>
<circle cx="335.8" cy="223.7" r="7.0" fill="#2ca02c" stroke="#fff" stroke-width="1.1"/>
<text class="label" text-anchor="start" x="345.8" y="226.7">JTY026_pyridyl_tail</text>
<circle cx="306.5" cy="220.0" r="7.0" fill="#2ca02c" stroke="#fff" stroke-width="1.1"/>
<text class="label" text-anchor="start" x="316.5" y="223.0">JTY026_triazine_tail</text>
<circle cx="652.2" cy="516.1" r="4.2" fill="#d62728" stroke="#fff" stroke-width="1.1"/>
<text class="label" text-anchor="start" x="659.4" y="519.1">JTY027_26diF_benzamide</text>
<circle cx="642.4" cy="518.8" r="4.2" fill="#d62728" stroke="#fff" stroke-width="1.1"/>
<text class="label" text-anchor="start" x="649.6" y="521.8">JTY027_2F6Me_benzamide</text>
<circle cx="801.1" cy="521.8" r="4.2" fill="#d62728" stroke="#fff" stroke-width="1.1"/>
<text class="label" text-anchor="start" x="808.3" y="524.8">JTY027_2F_benzamide</text>
<circle cx="924.4" cy="525.5" r="4.2" fill="#d62728" stroke="#fff" stroke-width="1.1"/>
<text class="label" text-anchor="end" x="917.2" y="528.5">JTY027_2Me_benzamide</text>
<circle cx="754.7" cy="529.0" r="4.2" fill="#d62728" stroke="#fff" stroke-width="1.1"/>
<text class="label" text-anchor="start" x="761.9" y="532.0">JTY027_2OMe_benzamide</text>
<circle cx="853.1" cy="516.1" r="5.4" fill="#d62728" stroke="#fff" stroke-width="1.1"/>
<text class="label" text-anchor="start" x="861.5" y="519.1">JTY027_aniline_diF</text>
<circle cx="868.5" cy="434.0" r="5.4" fill="#d62728" stroke="#fff" stroke-width="1.1"/>
<text class="label" text-anchor="start" x="876.9" y="437.0">26diMe_benzamide</text>
<circle cx="873.0" cy="434.0" r="5.4" fill="#d62728" stroke="#fff" stroke-width="1.1"/>
<text class="label" text-anchor="start" x="881.4" y="437.0">2CF3_benzamide</text>
<circle cx="877.5" cy="434.0" r="5.4" fill="#d62728" stroke="#fff" stroke-width="1.1"/>
<text class="label" text-anchor="start" x="885.9" y="437.0">2Cl_benzamide</text>
<circle cx="873.8" cy="521.7" r="5.4" fill="#d62728" stroke="#fff" stroke-width="1.1"/>
<text class="label" text-anchor="start" x="882.1" y="524.7">2Cyano_benzamide</text>
<circle cx="886.5" cy="434.0" r="5.4" fill="#d62728" stroke="#fff" stroke-width="1.1"/>
<text class="label" text-anchor="start" x="894.9" y="437.0">2Et_benzamide</text>
<circle cx="891.0" cy="434.0" r="5.4" fill="#d62728" stroke="#fff" stroke-width="1.1"/>
<text class="label" text-anchor="start" x="899.4" y="437.0">2F6Me_benzamide</text>
<circle cx="958.5" cy="520.6" r="5.4" fill="#d62728" stroke="#fff" stroke-width="1.1"/>
<text class="label" text-anchor="end" x="950.1" y="523.6">2F_benzamide</text>
<circle cx="868.5" cy="438.5" r="5.4" fill="#d62728" stroke="#fff" stroke-width="1.1"/>
<text class="label" text-anchor="start" x="876.9" y="441.5">2Me6Cl_benzamide</text>
<circle cx="1071.0" cy="529.0" r="5.4" fill="#d62728" stroke="#fff" stroke-width="1.1"/>
<text class="label" text-anchor="end" x="1062.6" y="532.0">2Me_benzamide</text>
<circle cx="877.5" cy="438.5" r="5.4" fill="#d62728" stroke="#fff" stroke-width="1.1"/>
<text class="label" text-anchor="start" x="885.9" y="441.5">2OcPr_benzamide</text>
<circle cx="882.0" cy="438.5" r="5.4" fill="#d62728" stroke="#fff" stroke-width="1.1"/>
<text class="label" text-anchor="start" x="890.4" y="441.5">2cPr_benzamide</text>
<circle cx="647.4" cy="555.3" r="4.2" fill="#d62728" stroke="#fff" stroke-width="1.1"/>
<text class="label" text-anchor="start" x="654.6" y="558.3">JTY027_aniline_diF_deCl</text>
<circle cx="594.0" cy="555.3" r="4.2" fill="#d62728" stroke="#fff" stroke-width="1.1"/>
<text class="label" text-anchor="start" x="601.2" y="558.3">deCl_26diF_benzamide</text>
<circle cx="598.5" cy="551.9" r="4.2" fill="#d62728" stroke="#fff" stroke-width="1.1"/>
<text class="label" text-anchor="start" x="605.7" y="554.9">deCl_2F6Me_benzamide</text>
<circle cx="713.9" cy="559.8" r="4.2" fill="#d62728" stroke="#fff" stroke-width="1.1"/>
<text class="label" text-anchor="start" x="721.1" y="562.8">deCl_2F_benzamide</text>
<circle cx="830.6" cy="562.8" r="4.2" fill="#d62728" stroke="#fff" stroke-width="1.1"/>
<text class="label" text-anchor="start" x="837.8" y="565.8">deCl_2Me_benzamide</text>
<circle cx="674.5" cy="565.5" r="4.2" fill="#d62728" stroke="#fff" stroke-width="1.1"/>
<text class="label" text-anchor="start" x="681.7" y="568.5">deCl_2OMe_benzamide</text>
<text class="note" x="34" y="724">Important: panel-local relative dG values are not globally rank-comparable across different pairwise reference frames.</text>
</svg>
