<svg xmlns="http://www.w3.org/2000/svg" width="980" height="610" viewBox="0 0 980 610">
<style>text{font-family:Arial,sans-serif;font-size:12px;fill:#1f1f1f}.title{font-size:18px}.note,.muted{fill:#666}.head{font-size:10px;text-transform:uppercase;letter-spacing:.04em}.axis{stroke:#d7d2c8;stroke-width:1}.row{stroke:#ebe5dc;stroke-width:1}</style>
<rect width="100%" height="100%" fill="#fffffb"/>
<text class="title" x="30" y="34">Science ranking: paired relative dG with RBFE anchor context</text>
<text class="note" x="30" y="57">Docking affinity and throughput are excluded from rank. OpenFE RBFE edges anchor or cross-check rows when directly observed.</text>
<text class="head" x="30" y="82">candidate</text>
<text class="head" x="306" y="82">rank scope</text>
<text class="head" x="430" y="82">paired relative dG</text>
<text class="head" x="760" y="82">RBFE anchor</text>
<line class="row" x1="30" y1="107" x2="950" y2="107"/>
<text x="30" y="96">#1 JTY027_aniline_diF_26diMe_benzamide</text>
<text class="muted" x="306" y="96">panel_supplied_pbcnet_rank_unverified_openfe_anchor</text>
<line class="axis" x1="430" y1="92" x2="700" y2="92"/><circle fill="#111" cx="479.4" cy="92" r="4.2"/><text x="712" y="96">-0.225</text>
<text class="muted" x="760" y="96">missing_openfe_anchor</text>
<line class="row" x1="30" y1="141" x2="950" y2="141"/>
<text x="30" y="130">#2 JTY027_aniline_diF_2Et_benzamide</text>
<text class="muted" x="306" y="130">panel_supplied_pbcnet_rank_unverified_openfe_anchor</text>
<line class="axis" x1="430" y1="126" x2="700" y2="126"/><circle fill="#111" cx="491.3" cy="126" r="4.2"/><text x="712" y="130">-0.184</text>
<text class="muted" x="760" y="130">missing_openfe_anchor</text>
<line class="row" x1="30" y1="175" x2="950" y2="175"/>
<text x="30" y="164">#4 JTY027_aniline_diF_2F6Me_benzamide</text>
<text class="muted" x="306" y="164">panel_supplied_pbcnet_rank_unverified_openfe_anchor</text>
<line class="axis" x1="430" y1="160" x2="700" y2="160"/><circle fill="#111" cx="512.7" cy="160" r="4.2"/><text x="712" y="164">-0.111</text>
<text class="muted" x="760" y="164">missing_openfe_anchor</text>
<line class="row" x1="30" y1="209" x2="950" y2="209"/>
<text x="30" y="198">#6 JTY027_aniline_diF_2Me6Cl_benzamide</text>
<text class="muted" x="306" y="198">panel_supplied_pbcnet_rank_unverified_openfe_anchor</text>
<line class="axis" x1="430" y1="194" x2="700" y2="194"/><circle fill="#9a3412" cx="565.2" cy="194" r="4.2"/><text x="712" y="198">+0.068</text>
<text class="muted" x="760" y="198">missing_openfe_anchor</text>
<line class="row" x1="30" y1="243" x2="950" y2="243"/>
<text x="30" y="232">#7 JTY027_aniline_diF_2CF3_benzamide</text>
<text class="muted" x="306" y="232">panel_supplied_pbcnet_rank_unverified_openfe_anchor</text>
<line class="axis" x1="430" y1="228" x2="700" y2="228"/><circle fill="#9a3412" cx="610.4" cy="228" r="4.2"/><text x="712" y="232">+0.222</text>
<text class="muted" x="760" y="232">missing_openfe_anchor</text>
<line class="row" x1="30" y1="277" x2="950" y2="277"/>
<text x="30" y="266">#8 JTY027_aniline_diF_2F_benzamide</text>
<text class="muted" x="306" y="266">panel_supplied_pbcnet_rank_unverified_openfe_anchor</text>
<line class="axis" x1="430" y1="262" x2="700" y2="262"/><circle fill="#9a3412" cx="690.4" cy="262" r="4.2"/><text x="712" y="266">+0.495</text>
<text class="muted" x="760" y="266">missing_openfe_anchor</text>
<line class="row" x1="30" y1="311" x2="950" y2="311"/>
<text x="30" y="300">#9 JTY027_aniline_diF_2Cl_benzamide</text>
<text class="muted" x="306" y="300">panel_supplied_pbcnet_rank_unverified_openfe_anchor</text>
<line class="axis" x1="430" y1="296" x2="700" y2="296"/><circle fill="#9a3412" cx="700.0" cy="296" r="4.2"/><text x="712" y="300">+0.528</text>
<text class="muted" x="760" y="300">missing_openfe_anchor</text>
<line class="row" x1="30" y1="345" x2="950" y2="345"/>
<text x="30" y="334">JTY023_imidazole_tail</text>
<text class="muted" x="306" y="334">panel_local_pbcnet_relative_ddg_unanchored</text>
<line class="axis" x1="430" y1="330" x2="700" y2="330"/><circle fill="#111" cx="430.0" cy="330" r="4.2"/><text x="712" y="334">-0.394</text>
<text class="muted" x="760" y="334">missing_openfe_anchor</text>
<line class="row" x1="30" y1="379" x2="950" y2="379"/>
<text x="30" y="368">JTY026_triazine_tail</text>
<text class="muted" x="306" y="368">panel_local_pbcnet_relative_ddg_unanchored</text>
<line class="axis" x1="430" y1="364" x2="700" y2="364"/><circle fill="#111" cx="454.9" cy="364" r="4.2"/><text x="712" y="368">-0.308</text>
<text class="muted" x="760" y="368">missing_openfe_anchor</text>
<line class="row" x1="30" y1="413" x2="950" y2="413"/>
<text x="30" y="402">JTY023_pyrazine_tail</text>
<text class="muted" x="306" y="402">panel_local_pbcnet_relative_ddg_unanchored</text>
<line class="axis" x1="430" y1="398" x2="700" y2="398"/><circle fill="#111" cx="486.9" cy="398" r="4.2"/><text x="712" y="402">-0.199</text>
<text class="muted" x="760" y="402">missing_openfe_anchor</text>
<line class="row" x1="30" y1="447" x2="950" y2="447"/>
<text x="30" y="436">JTY027_aniline_diF</text>
<text class="muted" x="306" y="436">panel_local_pbcnet_relative_ddg_unanchored</text>
<line class="axis" x1="430" y1="432" x2="700" y2="432"/><circle fill="#111" cx="506.6" cy="432" r="4.2"/><text x="712" y="436">-0.132</text>
<text class="muted" x="760" y="436">missing_openfe_anchor</text>
<line class="row" x1="30" y1="481" x2="950" y2="481"/>
<text x="30" y="470">JTY026_pyridyl_tail</text>
<text class="muted" x="306" y="470">panel_local_pbcnet_relative_ddg_unanchored</text>
<line class="axis" x1="430" y1="466" x2="700" y2="466"/><circle fill="#111" cx="532.0" cy="466" r="4.2"/><text x="712" y="470">-0.045</text>
<text class="muted" x="760" y="470">missing_openfe_anchor</text>
<line class="row" x1="30" y1="515" x2="950" y2="515"/>
<text x="30" y="504">JTY027_aniline_diF_2Me_benzamide</text>
<text class="muted" x="306" y="504">panel_local_pbcnet_relative_ddg_unanchored</text>
<line class="axis" x1="430" y1="500" x2="700" y2="500"/><circle fill="#111" cx="545.3" cy="500" r="4.2"/><text x="712" y="504">+0.000</text>
<text class="muted" x="760" y="504">missing_openfe_anchor</text>
</svg>
