<svg xmlns="http://www.w3.org/2000/svg" viewBox="0 0 190.0 120.0" font-family="ui-monospace,Menlo,monospace">
<rect width="190.0" height="120.0" fill="#eef1f5"/>
<rect x="62.00" y="60.80" width="6.00" height="35.20" fill="none" stroke="#1a2330" stroke-width="0.6"/>
<rect x="122.00" y="60.80" width="6.00" height="35.20" fill="none" stroke="#1a2330" stroke-width="0.6"/>
<line x1="62.00" y1="96.00" x2="128.00" y2="96.00" stroke="#1a2330" stroke-width="0.8"/>
<rect x="71.00" y="85.88" width="48.00" height="3.52" fill="#c8a25a" stroke="#1a2330" stroke-width="0.4"/>
<rect x="81.00" y="62.78" width="20" height="23.10" fill="#dfe6ee" stroke="#1a2330" stroke-width="0.4"/>
<text x="91.00" y="61.28" font-size="2.80" fill="#1a2330" text-anchor="middle" font-family="ui-monospace,Menlo,monospace" >C_IN — tallest, 10.5 [layout]</text>
<line x1="56.00" y1="60.80" x2="56.00" y2="96.00" stroke="#b0413e" stroke-width="0.35"/>
<line x1="56.00" y1="60.80" x2="54.90" y2="63.00" stroke="#b0413e" stroke-width="0.35"/>
<line x1="56.00" y1="60.80" x2="57.10" y2="63.00" stroke="#b0413e" stroke-width="0.35"/>
<line x1="56.00" y1="96.00" x2="54.90" y2="93.80" stroke="#b0413e" stroke-width="0.35"/>
<line x1="56.00" y1="96.00" x2="57.10" y2="93.80" stroke="#b0413e" stroke-width="0.35"/>
<text x="58.00" y="79.40" font-size="3.20" fill="#b0413e" text-anchor="start" font-family="ui-monospace,Menlo,monospace" >pocket 16 [X]</text>
<line x1="134.00" y1="62.78" x2="134.00" y2="96.00" stroke="#b0413e" stroke-width="0.35"/>
<line x1="134.00" y1="62.78" x2="132.90" y2="64.98" stroke="#b0413e" stroke-width="0.35"/>
<line x1="134.00" y1="62.78" x2="135.10" y2="64.98" stroke="#b0413e" stroke-width="0.35"/>
<line x1="134.00" y1="96.00" x2="132.90" y2="93.80" stroke="#b0413e" stroke-width="0.35"/>
<line x1="134.00" y1="96.00" x2="135.10" y2="93.80" stroke="#b0413e" stroke-width="0.35"/>
<text x="136.00" y="80.39" font-size="3.20" fill="#b0413e" text-anchor="start" font-family="ui-monospace,Menlo,monospace" >stack 15.1 = 3+1.6+10.5</text>
<text x="95.00" y="105.00" font-size="2.90" fill="#b0413e" text-anchor="middle" font-family="ui-monospace,Menlo,monospace" >clearance over parts after tolerances: 0.44 mm — held by fabfit, not by this picture</text>
<text x="95.00" y="8.00" font-size="4.20" fill="#1a2330" text-anchor="middle" font-family="ui-monospace,Menlo,monospace" >ORB CORE — SECTION (height stack)</text>
<text x="95.00" y="13.50" font-size="2.70" fill="#7a8aa0" text-anchor="middle" font-family="ui-monospace,Menlo,monospace" >walls drawn exaggerated; every number is the checked model's, not the picture's</text>
</svg>