<svg xmlns="http://www.w3.org/2000/svg" width="1480" height="924" viewBox="0 0 1480 924">
<style>text{font-family:Arial,sans-serif;font-size:11px;fill:#1f1f1f}.title{font-size:18px}.note{fill:#666;font-size:12px}.head{font-size:10px;text-transform:uppercase;letter-spacing:.04em;fill:#555}.rule{stroke:#222;stroke-width:1.25}.row{stroke:#e7e2d8;stroke-width:1}.stripe{fill:#f7f5ef}.bar-bg{stroke:#d9d3c8;stroke-width:1}.lane{font-weight:700}.muted{fill:#777}.small{font-size:10px}</style>
<rect width="100%" height="100%" fill="#fffffb"/>
<text class="title" x="42" y="34">SAR action ladder</text>
<text class="note" x="42" y="56">Tufte pass: a ranked ledger of the observation that changes the decision state next. This is not a beauty chart and not a composite score.</text>
<text class="note" x="42" y="74">Read left to right: action class, candidate, current evidence, missing proof, and next concrete analysis.</text>
<text class="head" x="42" y="90">action</text>
<text class="head" x="190" y="90">candidate</text>
<text class="head" x="392" y="90">rank/support</text>
<text class="head" x="558" y="90">mechanism trace</text>
<text class="head" x="760" y="90">coverage</text>
<text class="head" x="858" y="90">why it matters now</text>
<text class="head" x="1114" y="90">missing proof</text>
<text class="head" x="1326" y="90">next</text>
<line class="rule" x1="42" y1="96" x2="1438" y2="96"/>
<line class="row" x1="42" y1="129" x2="1438" y2="129"/>
<text class="lane" style="fill:#7c2d12" x="42" y="116">Pose evidence</text>
<text x="190" y="116">2F6Me_benzamide</text>
<text class="small muted" x="190" y="128">pose missing</text>
<text x="392" y="116">official rank 4</text>
<line class="bar-bg" x1="490" y1="114" x2="544" y2="114"/><line stroke="#111" stroke-width="3.1" x1="490" y1="114" x2="541.5" y2="114"/>
<line class="bar-bg" x1="558" y1="114" x2="600" y2="114"/><line stroke="#8a3ffc" stroke-width="3.1" x1="558" y1="114" x2="595.8" y2="114"/>
<line class="bar-bg" x1="606" y1="114" x2="648" y2="114"/><line stroke="#0f766e" stroke-width="3.1" x1="606" y1="114" x2="611.0" y2="114"/>
<line class="bar-bg" x1="654" y1="114" x2="696" y2="114"/><line stroke="#b45309" stroke-width="3.1" x1="654" y1="114" x2="663.2" y2="114"/>
<text class="small muted" x="706" y="116">G/T/S</text>
<text x="760" y="116">0 loops / 0 edges</text>
<text x="858" y="116">no observed docked pose; prep conformer ca...</text>
<text x="1114" y="116">docked-pose artifact or receptor-...</text>
<text x="1326" y="116">recover docked pose befo...</text>
<rect class="stripe" x="42" y="129" width="1396" height="31"/>
<line class="row" x1="42" y1="160" x2="1438" y2="160"/>
<text class="lane" style="fill:#7c2d12" x="42" y="147"></text>
<text x="190" y="147">JTY023_4F_pyridyl_tail</text>
<text class="small muted" x="190" y="159">pose missing</text>
<text x="392" y="147">3 closed loops</text>
<line class="bar-bg" x1="490" y1="145" x2="544" y2="145"/><line stroke="#111" stroke-width="3.1" x1="490" y1="145" x2="539.6" y2="145"/>
<line class="bar-bg" x1="558" y1="145" x2="600" y2="145"/><line stroke="#8a3ffc" stroke-width="3.1" x1="558" y1="145" x2="564.7" y2="145"/>
<line class="bar-bg" x1="606" y1="145" x2="648" y2="145"/><line stroke="#0f766e" stroke-width="3.1" x1="606" y1="145" x2="639.6" y2="145"/>
<line class="bar-bg" x1="654" y1="145" x2="696" y2="145"/><line stroke="#b45309" stroke-width="3.1" x1="654" y1="145" x2="658.2" y2="145"/>
<text class="small muted" x="706" y="147">G/T/S</text>
<text x="760" y="147">3 loops / 25 edges</text>
<text x="858" y="147">no observed docked pose; prep conformer ca...</text>
<text x="1114" y="147">docked-pose artifact or receptor-...</text>
<text x="1326" y="147">recover docked pose befo...</text>
<line class="row" x1="42" y1="191" x2="1438" y2="191"/>
<text class="lane" style="fill:#7c2d12" x="42" y="178"></text>
<text x="190" y="178">JTY023_4Br_pyridyl_tail</text>
<text class="small muted" x="190" y="190">pose missing</text>
<text x="392" y="178">5 closed loops</text>
<line class="bar-bg" x1="490" y1="176" x2="544" y2="176"/><line stroke="#111" stroke-width="3.1" x1="490" y1="176" x2="539.0" y2="176"/>
<line class="bar-bg" x1="558" y1="176" x2="600" y2="176"/><line stroke="#8a3ffc" stroke-width="3.1" x1="558" y1="176" x2="564.7" y2="176"/>
<line class="bar-bg" x1="606" y1="176" x2="648" y2="176"/><line stroke="#0f766e" stroke-width="3.1" x1="606" y1="176" x2="639.6" y2="176"/>
<line class="bar-bg" x1="654" y1="176" x2="696" y2="176"/><line stroke="#b45309" stroke-width="3.1" x1="654" y1="176" x2="658.2" y2="176"/>
<text class="small muted" x="706" y="178">G/T/S</text>
<text x="760" y="178">5 loops / 43 edges</text>
<text x="858" y="178">no observed docked pose; prep conformer ca...</text>
<text x="1114" y="178">docked-pose artifact or receptor-...</text>
<text x="1326" y="178">recover docked pose befo...</text>
<rect class="stripe" x="42" y="191" width="1396" height="31"/>
<line class="row" x1="42" y1="222" x2="1438" y2="222"/>
<text class="lane" style="fill:#7c2d12" x="42" y="209"></text>
<text x="190" y="209">2Me6Cl_benzamide</text>
<text class="small muted" x="190" y="221">pose missing</text>
<text x="392" y="209">official rank 6</text>
<line class="bar-bg" x1="490" y1="207" x2="544" y2="207"/><line stroke="#111" stroke-width="3.1" x1="490" y1="207" x2="537.5" y2="207"/>
<line class="bar-bg" x1="558" y1="207" x2="600" y2="207"/><line stroke="#8a3ffc" stroke-width="3.1" x1="558" y1="207" x2="595.8" y2="207"/>
<line class="bar-bg" x1="606" y1="207" x2="648" y2="207"/><line stroke="#0f766e" stroke-width="3.1" x1="606" y1="207" x2="611.0" y2="207"/>
<line class="bar-bg" x1="654" y1="207" x2="696" y2="207"/><line stroke="#b45309" stroke-width="3.1" x1="654" y1="207" x2="663.2" y2="207"/>
<text class="small muted" x="706" y="209">G/T/S</text>
<text x="760" y="209">0 loops / 0 edges</text>
<text x="858" y="209">no observed docked pose; prep conformer ca...</text>
<text x="1114" y="209">docked-pose artifact or receptor-...</text>
<text x="1326" y="209">recover docked pose befo...</text>
<line class="row" x1="42" y1="253" x2="1438" y2="253"/>
<text class="lane" style="fill:#7c2d12" x="42" y="240"></text>
<text x="190" y="240">2CF3_benzamide</text>
<text class="small muted" x="190" y="252">pose missing</text>
<text x="392" y="240">official rank 7</text>
<line class="bar-bg" x1="490" y1="238" x2="544" y2="238"/><line stroke="#111" stroke-width="3.1" x1="490" y1="238" x2="534.0" y2="238"/>
<line class="bar-bg" x1="558" y1="238" x2="600" y2="238"/><line stroke="#8a3ffc" stroke-width="3.1" x1="558" y1="238" x2="595.8" y2="238"/>
<line class="bar-bg" x1="606" y1="238" x2="648" y2="238"/><line stroke="#0f766e" stroke-width="3.1" x1="606" y1="238" x2="611.0" y2="238"/>
<line class="bar-bg" x1="654" y1="238" x2="696" y2="238"/><line stroke="#b45309" stroke-width="3.1" x1="654" y1="238" x2="692.6" y2="238"/>
<text class="small muted" x="706" y="240">G/T/S</text>
<text x="760" y="240">0 loops / 0 edges</text>
<text x="858" y="240">no observed docked pose; prep conformer ca...</text>
<text x="1114" y="240">docked-pose artifact or receptor-...</text>
<text x="1326" y="240">recover docked pose befo...</text>
<rect class="stripe" x="42" y="253" width="1396" height="31"/>
<line class="row" x1="42" y1="284" x2="1438" y2="284"/>
<text class="lane" style="fill:#7c2d12" x="42" y="271"></text>
<text x="190" y="271">JTY023_5F_pyrimidyl_tail</text>
<text class="small muted" x="190" y="283">pose missing</text>
<text x="392" y="271">2 closed loops</text>
<line class="bar-bg" x1="490" y1="269" x2="544" y2="269"/><line stroke="#111" stroke-width="3.1" x1="490" y1="269" x2="532.1" y2="269"/>
<line class="bar-bg" x1="558" y1="269" x2="600" y2="269"/><line stroke="#8a3ffc" stroke-width="3.1" x1="558" y1="269" x2="564.7" y2="269"/>
<line class="bar-bg" x1="606" y1="269" x2="648" y2="269"/><line stroke="#0f766e" stroke-width="3.1" x1="606" y1="269" x2="639.6" y2="269"/>
<line class="bar-bg" x1="654" y1="269" x2="696" y2="269"/><line stroke="#b45309" stroke-width="3.1" x1="654" y1="269" x2="658.2" y2="269"/>
<text class="small muted" x="706" y="271">G/T/S</text>
<text x="760" y="271">2 loops / 16 edges</text>
<text x="858" y="271">no observed docked pose; prep conformer ca...</text>
<text x="1114" y="271">docked-pose artifact or receptor-...</text>
<text x="1326" y="271">recover docked pose befo...</text>
<line class="row" x1="42" y1="315" x2="1438" y2="315"/>
<text class="lane" style="fill:#7c2d12" x="42" y="302"></text>
<text x="190" y="302">JTY027_aniline_diF_2F_benzamide</text>
<text class="small muted" x="190" y="314">pose missing</text>
<text x="392" y="302">official rank 8</text>
<line class="bar-bg" x1="490" y1="300" x2="544" y2="300"/><line stroke="#111" stroke-width="3.1" x1="490" y1="300" x2="527.9" y2="300"/>
<line class="bar-bg" x1="558" y1="300" x2="600" y2="300"/><line stroke="#8a3ffc" stroke-width="3.1" x1="558" y1="300" x2="595.8" y2="300"/>
<line class="bar-bg" x1="606" y1="300" x2="648" y2="300"/><line stroke="#0f766e" stroke-width="3.1" x1="606" y1="300" x2="611.0" y2="300"/>
<line class="bar-bg" x1="654" y1="300" x2="696" y2="300"/><line stroke="#b45309" stroke-width="3.1" x1="654" y1="300" x2="663.2" y2="300"/>
<text class="small muted" x="706" y="302">G/T/S</text>
<text x="760" y="302">0 loops / 0 edges</text>
<text x="858" y="302">no observed docked pose; prep conformer ca...</text>
<text x="1114" y="302">docked-pose artifact or receptor-...</text>
<text x="1326" y="302">recover docked pose befo...</text>
<rect class="stripe" x="42" y="315" width="1396" height="31"/>
<line class="row" x1="42" y1="346" x2="1438" y2="346"/>
<text class="lane" style="fill:#7c2d12" x="42" y="333"></text>
<text x="190" y="333">2Cl_benzamide</text>
<text class="small muted" x="190" y="345">pose missing</text>
<text x="392" y="333">official rank 9</text>
<line class="bar-bg" x1="490" y1="331" x2="544" y2="331"/><line stroke="#111" stroke-width="3.1" x1="490" y1="331" x2="527.2" y2="331"/>
<line class="bar-bg" x1="558" y1="331" x2="600" y2="331"/><line stroke="#8a3ffc" stroke-width="3.1" x1="558" y1="331" x2="595.8" y2="331"/>
<line class="bar-bg" x1="606" y1="331" x2="648" y2="331"/><line stroke="#0f766e" stroke-width="3.1" x1="606" y1="331" x2="611.0" y2="331"/>
<line class="bar-bg" x1="654" y1="331" x2="696" y2="331"/><line stroke="#b45309" stroke-width="3.1" x1="654" y1="331" x2="663.2" y2="331"/>
<text class="small muted" x="706" y="333">G/T/S</text>
<text x="760" y="333">0 loops / 0 edges</text>
<text x="858" y="333">no observed docked pose; prep conformer ca...</text>
<text x="1114" y="333">docked-pose artifact or receptor-...</text>
<text x="1326" y="333">recover docked pose befo...</text>
<line class="row" x1="42" y1="377" x2="1438" y2="377"/>
<text class="lane" style="fill:#b45309" x="42" y="364">Hydrate / site-map</text>
<text x="190" y="364">2Cyano_benzamide</text>
<text class="small muted" x="190" y="376">water-context required</text>
<text x="392" y="364">official rank 5</text>
<line class="bar-bg" x1="490" y1="362" x2="544" y2="362"/><line stroke="#111" stroke-width="3.1" x1="490" y1="362" x2="508.9" y2="362"/>
<line class="bar-bg" x1="558" y1="362" x2="600" y2="362"/><line stroke="#8a3ffc" stroke-width="3.1" x1="558" y1="362" x2="595.8" y2="362"/>
<line class="bar-bg" x1="606" y1="362" x2="648" y2="362"/><line stroke="#0f766e" stroke-width="3.1" x1="606" y1="362" x2="611.0" y2="362"/>
<line class="bar-bg" x1="654" y1="362" x2="696" y2="362"/><line stroke="#b45309" stroke-width="3.1" x1="654" y1="362" x2="692.6" y2="362"/>
<text class="small muted" x="706" y="364">G/T/S</text>
<text x="760" y="364">0 loops / 0 edges</text>
<text x="858" y="364">solvent-ledge probe is missing water/site ...</text>
<text x="1114" y="364">required: water/site perception o...</text>
<text x="1326" y="364">add water/site perceptio...</text>
<rect class="stripe" x="42" y="377" width="1396" height="31"/>
<line class="row" x1="42" y1="408" x2="1438" y2="408"/>
<text class="lane" style="fill:#0f766e" x="42" y="395">Share reference</text>
<text x="190" y="395">JTY026_pyridyl_tail</text>
<text class="small muted" x="190" y="407">panel-local only</text>
<text x="392" y="395">panel-local</text>
<line class="bar-bg" x1="490" y1="393" x2="544" y2="393"/><line stroke="#111" stroke-width="3.1" x1="490" y1="393" x2="522.3" y2="393"/>
<line class="bar-bg" x1="558" y1="393" x2="600" y2="393"/><line stroke="#8a3ffc" stroke-width="3.1" x1="558" y1="393" x2="564.7" y2="393"/>
<line class="bar-bg" x1="606" y1="393" x2="648" y2="393"/><line stroke="#0f766e" stroke-width="3.1" x1="606" y1="393" x2="647.2" y2="393"/>
<line class="bar-bg" x1="654" y1="393" x2="696" y2="393"/><line stroke="#b45309" stroke-width="3.1" x1="654" y1="393" x2="658.2" y2="393"/>
<text class="small muted" x="706" y="395">G/T/S</text>
<text x="760" y="395">3 loops / 25 edges</text>
<text x="858" y="395">tail result is panel-local and cannot glob...</text>
<text x="1114" y="395">bridge edges or one shared closed...</text>
<text x="1326" y="395">share reference frame be...</text>
<line class="row" x1="42" y1="439" x2="1438" y2="439"/>
<text class="lane" style="fill:#0f766e" x="42" y="426"></text>
<text x="190" y="426">JTY023_imidazole_tail</text>
<text class="small muted" x="190" y="438">panel-local only</text>
<text x="392" y="426">panel-local</text>
<line class="bar-bg" x1="490" y1="424" x2="544" y2="424"/><line stroke="#111" stroke-width="3.1" x1="490" y1="424" x2="521.4" y2="424"/>
<line class="bar-bg" x1="558" y1="424" x2="600" y2="424"/><line stroke="#8a3ffc" stroke-width="3.1" x1="558" y1="424" x2="564.7" y2="424"/>
<line class="bar-bg" x1="606" y1="424" x2="648" y2="424"/><line stroke="#0f766e" stroke-width="3.1" x1="606" y1="424" x2="647.2" y2="424"/>
<line class="bar-bg" x1="654" y1="424" x2="696" y2="424"/><line stroke="#b45309" stroke-width="3.1" x1="654" y1="424" x2="658.2" y2="424"/>
<text class="small muted" x="706" y="426">G/T/S</text>
<text x="760" y="426">2 loops / 16 edges</text>
<text x="858" y="426">tail result is panel-local and cannot glob...</text>
<text x="1114" y="426">bridge edges or one shared closed...</text>
<text x="1326" y="426">share reference frame be...</text>
<rect class="stripe" x="42" y="439" width="1396" height="31"/>
<line class="row" x1="42" y1="470" x2="1438" y2="470"/>
<text class="lane" style="fill:#0f766e" x="42" y="457"></text>
<text x="190" y="457">JTY026_triazine_tail</text>
<text class="small muted" x="190" y="469">panel-local only</text>
<text x="392" y="457">panel-local</text>
<line class="bar-bg" x1="490" y1="455" x2="544" y2="455"/><line stroke="#111" stroke-width="3.1" x1="490" y1="455" x2="512.6" y2="455"/>
<line class="bar-bg" x1="558" y1="455" x2="600" y2="455"/><line stroke="#8a3ffc" stroke-width="3.1" x1="558" y1="455" x2="564.7" y2="455"/>
<line class="bar-bg" x1="606" y1="455" x2="648" y2="455"/><line stroke="#0f766e" stroke-width="3.1" x1="606" y1="455" x2="647.2" y2="455"/>
<line class="bar-bg" x1="654" y1="455" x2="696" y2="455"/><line stroke="#b45309" stroke-width="3.1" x1="654" y1="455" x2="658.2" y2="455"/>
<text class="small muted" x="706" y="457">G/T/S</text>
<text x="760" y="457">4 loops / 34 edges</text>
<text x="858" y="457">tail result is panel-local and cannot glob...</text>
<text x="1114" y="457">bridge edges or one shared closed...</text>
<text x="1326" y="457">share reference frame be...</text>
<line class="row" x1="42" y1="501" x2="1438" y2="501"/>
<text class="lane" style="fill:#777" x="42" y="488">rbfe_confirm</text>
<text x="190" y="488">26diMe_benzamide</text>
<text class="small muted" x="190" y="500">PBCNet-only</text>
<text x="392" y="488">official rank 1</text>
<line class="bar-bg" x1="490" y1="486" x2="544" y2="486"/><line stroke="#111" stroke-width="3.1" x1="490" y1="486" x2="544.0" y2="486"/>
<line class="bar-bg" x1="558" y1="486" x2="600" y2="486"/><line stroke="#8a3ffc" stroke-width="3.1" x1="558" y1="486" x2="599.2" y2="486"/>
<line class="bar-bg" x1="606" y1="486" x2="648" y2="486"/><line stroke="#0f766e" stroke-width="3.1" x1="606" y1="486" x2="611.0" y2="486"/>
<line class="bar-bg" x1="654" y1="486" x2="696" y2="486"/><line stroke="#b45309" stroke-width="3.1" x1="654" y1="486" x2="658.2" y2="486"/>
<text class="small muted" x="706" y="488">G/T/S</text>
<text x="760" y="488">0 loops / 0 edges</text>
<text x="858" y="488">top paired-model rank is PBCNet-only; dire...</text>
<text x="1114" y="488">direct RBFE edge or shared closed...</text>
<text x="1326" y="488">queue RBFE or shared clo...</text>
<rect class="stripe" x="42" y="501" width="1396" height="31"/>
<line class="row" x1="42" y1="532" x2="1438" y2="532"/>
<text class="lane" style="fill:#777" x="42" y="519"></text>
<text x="190" y="519">2Et_benzamide</text>
<text class="small muted" x="190" y="531">PBCNet-only</text>
<text x="392" y="519">official rank 2</text>
<line class="bar-bg" x1="490" y1="517" x2="544" y2="517"/><line stroke="#111" stroke-width="3.1" x1="490" y1="517" x2="543.1" y2="517"/>
<line class="bar-bg" x1="558" y1="517" x2="600" y2="517"/><line stroke="#8a3ffc" stroke-width="3.1" x1="558" y1="517" x2="599.2" y2="517"/>
<line class="bar-bg" x1="606" y1="517" x2="648" y2="517"/><line stroke="#0f766e" stroke-width="3.1" x1="606" y1="517" x2="611.0" y2="517"/>
<line class="bar-bg" x1="654" y1="517" x2="696" y2="517"/><line stroke="#b45309" stroke-width="3.1" x1="654" y1="517" x2="658.2" y2="517"/>
<text class="small muted" x="706" y="519">G/T/S</text>
<text x="760" y="519">0 loops / 0 edges</text>
<text x="858" y="519">top paired-model rank is PBCNet-only; dire...</text>
<text x="1114" y="519">direct RBFE edge or shared closed...</text>
<text x="1326" y="519">queue RBFE or shared clo...</text>
<line class="row" x1="42" y1="563" x2="1438" y2="563"/>
<text class="lane" style="fill:#777" x="42" y="550"></text>
<text x="190" y="550">JTY027_aniline_diF</text>
<text class="small muted" x="190" y="562">PBCNet-only</text>
<text x="392" y="550">official rank 3</text>
<line class="bar-bg" x1="490" y1="548" x2="544" y2="548"/><line stroke="#111" stroke-width="3.1" x1="490" y1="548" x2="541.9" y2="548"/>
<line class="bar-bg" x1="558" y1="548" x2="600" y2="548"/><line stroke="#8a3ffc" stroke-width="3.1" x1="558" y1="548" x2="589.9" y2="548"/>
<line class="bar-bg" x1="606" y1="548" x2="648" y2="548"/><line stroke="#0f766e" stroke-width="3.1" x1="606" y1="548" x2="617.8" y2="548"/>
<line class="bar-bg" x1="654" y1="548" x2="696" y2="548"/><line stroke="#b45309" stroke-width="3.1" x1="654" y1="548" x2="658.2" y2="548"/>
<text class="small muted" x="706" y="550">G/T/S</text>
<text x="760" y="550">0 loops / 0 edges</text>
<text x="858" y="550">top paired-model rank is PBCNet-only; dire...</text>
<text x="1114" y="550">direct RBFE edge or shared closed...</text>
<text x="1326" y="550">queue RBFE or shared clo...</text>
<rect class="stripe" x="42" y="563" width="1396" height="31"/>
<line class="row" x1="42" y1="594" x2="1438" y2="594"/>
<text class="lane" style="fill:#777" x="42" y="581"></text>
<text x="190" y="581">JTY023_pyrazine_tail</text>
<text class="small muted" x="190" y="593">PBCNet-only</text>
<text x="392" y="581">official rank 3</text>
<line class="bar-bg" x1="490" y1="579" x2="544" y2="579"/><line stroke="#111" stroke-width="3.1" x1="490" y1="579" x2="534.5" y2="579"/>
<line class="bar-bg" x1="558" y1="579" x2="600" y2="579"/><line stroke="#8a3ffc" stroke-width="3.1" x1="558" y1="579" x2="568.1" y2="579"/>
<line class="bar-bg" x1="606" y1="579" x2="648" y2="579"/><line stroke="#0f766e" stroke-width="3.1" x1="606" y1="579" x2="647.2" y2="579"/>
<line class="bar-bg" x1="654" y1="579" x2="696" y2="579"/><line stroke="#b45309" stroke-width="3.1" x1="654" y1="579" x2="658.2" y2="579"/>
<text class="small muted" x="706" y="581">G/T/S</text>
<text x="760" y="581">3 loops / 25 edges</text>
<text x="858" y="581">top paired-model rank is PBCNet-only; dire...</text>
<text x="1114" y="581">direct RBFE edge or shared closed...</text>
<text x="1326" y="581">queue RBFE or shared clo...</text>
<line class="row" x1="42" y1="625" x2="1438" y2="625"/>
<text class="lane" style="fill:#777777" x="42" y="612">Context</text>
<text x="190" y="612">2Me_benzamide</text>
<text class="small muted" x="190" y="624">context</text>
<text x="392" y="612">official rank 6</text>
<line class="bar-bg" x1="490" y1="610" x2="544" y2="610"/><line stroke="#111" stroke-width="3.1" x1="490" y1="610" x2="539.0" y2="610"/>
<line class="bar-bg" x1="558" y1="610" x2="600" y2="610"/><line stroke="#8a3ffc" stroke-width="3.1" x1="558" y1="610" x2="595.8" y2="610"/>
<line class="bar-bg" x1="606" y1="610" x2="648" y2="610"/><line stroke="#0f766e" stroke-width="3.1" x1="606" y1="610" x2="611.0" y2="610"/>
<line class="bar-bg" x1="654" y1="610" x2="696" y2="610"/><line stroke="#b45309" stroke-width="3.1" x1="654" y1="610" x2="658.2" y2="610"/>
<text class="small muted" x="706" y="612">G/T/S</text>
<text x="760" y="612">0 loops / 0 edges</text>
<text x="858" y="612">keep visible only if a hypothesis needs th...</text>
<text x="1114" y="612">no immediate blocker; low action ...</text>
<text x="1326" y="612">keep as context unless h...</text>
<rect class="stripe" x="42" y="625" width="1396" height="31"/>
<line class="row" x1="42" y1="656" x2="1438" y2="656"/>
<text class="lane" style="fill:#777777" x="42" y="643"></text>
<text x="190" y="643">JTY027_26diF_benzamide</text>
<text class="small muted" x="190" y="655">context</text>
<text x="392" y="643">unranked context</text>
<line class="bar-bg" x1="490" y1="641" x2="544" y2="641"/><line stroke="#111" stroke-width="3.1" x1="490" y1="641" x2="508.9" y2="641"/>
<line class="bar-bg" x1="558" y1="641" x2="600" y2="641"/><line stroke="#8a3ffc" stroke-width="3.1" x1="558" y1="641" x2="595.8" y2="641"/>
<line class="bar-bg" x1="606" y1="641" x2="648" y2="641"/><line stroke="#0f766e" stroke-width="3.1" x1="606" y1="641" x2="611.0" y2="641"/>
<line class="bar-bg" x1="654" y1="641" x2="696" y2="641"/><line stroke="#b45309" stroke-width="3.1" x1="654" y1="641" x2="658.2" y2="641"/>
<text class="small muted" x="706" y="643">G/T/S</text>
<text x="760" y="643">0 loops / 0 edges</text>
<text x="858" y="643">keep visible only if a hypothesis needs th...</text>
<text x="1114" y="643">no immediate blocker; low action ...</text>
<text x="1326" y="643">keep as context unless h...</text>
<line class="row" x1="42" y1="687" x2="1438" y2="687"/>
<text class="lane" style="fill:#777777" x="42" y="674"></text>
<text x="190" y="674">JTY027_2F6Me_benzamide</text>
<text class="small muted" x="190" y="686">context</text>
<text x="392" y="674">unranked context</text>
<line class="bar-bg" x1="490" y1="672" x2="544" y2="672"/><line stroke="#111" stroke-width="3.1" x1="490" y1="672" x2="508.9" y2="672"/>
<line class="bar-bg" x1="558" y1="672" x2="600" y2="672"/><line stroke="#8a3ffc" stroke-width="3.1" x1="558" y1="672" x2="595.8" y2="672"/>
<line class="bar-bg" x1="606" y1="672" x2="648" y2="672"/><line stroke="#0f766e" stroke-width="3.1" x1="606" y1="672" x2="611.0" y2="672"/>
<line class="bar-bg" x1="654" y1="672" x2="696" y2="672"/><line stroke="#b45309" stroke-width="3.1" x1="654" y1="672" x2="663.2" y2="672"/>
<text class="small muted" x="706" y="674">G/T/S</text>
<text x="760" y="674">0 loops / 0 edges</text>
<text x="858" y="674">keep visible only if a hypothesis needs th...</text>
<text x="1114" y="674">no immediate blocker; low action ...</text>
<text x="1326" y="674">keep as context unless h...</text>
<rect class="stripe" x="42" y="687" width="1396" height="31"/>
<line class="row" x1="42" y1="718" x2="1438" y2="718"/>
<text class="lane" style="fill:#777777" x="42" y="705"></text>
<text x="190" y="705">JTY027_2F_benzamide</text>
<text class="small muted" x="190" y="717">context</text>
<text x="392" y="705">unranked context</text>
<line class="bar-bg" x1="490" y1="703" x2="544" y2="703"/><line stroke="#111" stroke-width="3.1" x1="490" y1="703" x2="508.9" y2="703"/>
<line class="bar-bg" x1="558" y1="703" x2="600" y2="703"/><line stroke="#8a3ffc" stroke-width="3.1" x1="558" y1="703" x2="595.8" y2="703"/>
<line class="bar-bg" x1="606" y1="703" x2="648" y2="703"/><line stroke="#0f766e" stroke-width="3.1" x1="606" y1="703" x2="611.0" y2="703"/>
<line class="bar-bg" x1="654" y1="703" x2="696" y2="703"/><line stroke="#b45309" stroke-width="3.1" x1="654" y1="703" x2="663.2" y2="703"/>
<text class="small muted" x="706" y="705">G/T/S</text>
<text x="760" y="705">0 loops / 0 edges</text>
<text x="858" y="705">keep visible only if a hypothesis needs th...</text>
<text x="1114" y="705">no immediate blocker; low action ...</text>
<text x="1326" y="705">keep as context unless h...</text>
<line class="row" x1="42" y1="749" x2="1438" y2="749"/>
<text class="lane" style="fill:#777777" x="42" y="736"></text>
<text x="190" y="736">JTY027_2Me_benzamide</text>
<text class="small muted" x="190" y="748">context</text>
<text x="392" y="736">unranked context</text>
<line class="bar-bg" x1="490" y1="734" x2="544" y2="734"/><line stroke="#111" stroke-width="3.1" x1="490" y1="734" x2="508.9" y2="734"/>
<line class="bar-bg" x1="558" y1="734" x2="600" y2="734"/><line stroke="#8a3ffc" stroke-width="3.1" x1="558" y1="734" x2="595.8" y2="734"/>
<line class="bar-bg" x1="606" y1="734" x2="648" y2="734"/><line stroke="#0f766e" stroke-width="3.1" x1="606" y1="734" x2="611.0" y2="734"/>
<line class="bar-bg" x1="654" y1="734" x2="696" y2="734"/><line stroke="#b45309" stroke-width="3.1" x1="654" y1="734" x2="658.2" y2="734"/>
<text class="small muted" x="706" y="736">G/T/S</text>
<text x="760" y="736">0 loops / 0 edges</text>
<text x="858" y="736">keep visible only if a hypothesis needs th...</text>
<text x="1114" y="736">no immediate blocker; low action ...</text>
<text x="1326" y="736">keep as context unless h...</text>
<rect class="stripe" x="42" y="749" width="1396" height="31"/>
<line class="row" x1="42" y1="780" x2="1438" y2="780"/>
<text class="lane" style="fill:#777777" x="42" y="767"></text>
<text x="190" y="767">JTY027_2OMe_benzamide</text>
<text class="small muted" x="190" y="779">context</text>
<text x="392" y="767">unranked context</text>
<line class="bar-bg" x1="490" y1="765" x2="544" y2="765"/><line stroke="#111" stroke-width="3.1" x1="490" y1="765" x2="508.9" y2="765"/>
<line class="bar-bg" x1="558" y1="765" x2="600" y2="765"/><line stroke="#8a3ffc" stroke-width="3.1" x1="558" y1="765" x2="595.8" y2="765"/>
<line class="bar-bg" x1="606" y1="765" x2="648" y2="765"/><line stroke="#0f766e" stroke-width="3.1" x1="606" y1="765" x2="611.0" y2="765"/>
<line class="bar-bg" x1="654" y1="765" x2="696" y2="765"/><line stroke="#b45309" stroke-width="3.1" x1="654" y1="765" x2="658.2" y2="765"/>
<text class="small muted" x="706" y="767">G/T/S</text>
<text x="760" y="767">0 loops / 0 edges</text>
<text x="858" y="767">keep visible only if a hypothesis needs th...</text>
<text x="1114" y="767">no immediate blocker; low action ...</text>
<text x="1326" y="767">keep as context unless h...</text>
<line class="row" x1="42" y1="811" x2="1438" y2="811"/>
<text class="lane" style="fill:#777777" x="42" y="798"></text>
<text x="190" y="798">2OcPr_benzamide</text>
<text class="small muted" x="190" y="810">context</text>
<text x="392" y="798">unranked context</text>
<line class="bar-bg" x1="490" y1="796" x2="544" y2="796"/><line stroke="#111" stroke-width="3.1" x1="490" y1="796" x2="508.9" y2="796"/>
<line class="bar-bg" x1="558" y1="796" x2="600" y2="796"/><line stroke="#8a3ffc" stroke-width="3.1" x1="558" y1="796" x2="595.8" y2="796"/>
<line class="bar-bg" x1="606" y1="796" x2="648" y2="796"/><line stroke="#0f766e" stroke-width="3.1" x1="606" y1="796" x2="611.0" y2="796"/>
<line class="bar-bg" x1="654" y1="796" x2="696" y2="796"/><line stroke="#b45309" stroke-width="3.1" x1="654" y1="796" x2="675.0" y2="796"/>
<text class="small muted" x="706" y="798">G/T/S</text>
<text x="760" y="798">0 loops / 0 edges</text>
<text x="858" y="798">keep visible only if a hypothesis needs th...</text>
<text x="1114" y="798">no immediate blocker; low action ...</text>
<text x="1326" y="798">keep as context unless h...</text>
<rect class="stripe" x="42" y="811" width="1396" height="31"/>
<line class="row" x1="42" y1="842" x2="1438" y2="842"/>
<text class="lane" style="fill:#777777" x="42" y="829"></text>
<text x="190" y="829">2cPr_benzamide</text>
<text class="small muted" x="190" y="841">context</text>
<text x="392" y="829">unranked context</text>
<line class="bar-bg" x1="490" y1="827" x2="544" y2="827"/><line stroke="#111" stroke-width="3.1" x1="490" y1="827" x2="508.9" y2="827"/>
<line class="bar-bg" x1="558" y1="827" x2="600" y2="827"/><line stroke="#8a3ffc" stroke-width="3.1" x1="558" y1="827" x2="595.8" y2="827"/>
<line class="bar-bg" x1="606" y1="827" x2="648" y2="827"/><line stroke="#0f766e" stroke-width="3.1" x1="606" y1="827" x2="611.0" y2="827"/>
<line class="bar-bg" x1="654" y1="827" x2="696" y2="827"/><line stroke="#b45309" stroke-width="3.1" x1="654" y1="827" x2="658.2" y2="827"/>
<text class="small muted" x="706" y="829">G/T/S</text>
<text x="760" y="829">0 loops / 0 edges</text>
<text x="858" y="829">keep visible only if a hypothesis needs th...</text>
<text x="1114" y="829">no immediate blocker; low action ...</text>
<text x="1326" y="829">keep as context unless h...</text>
<text class="note" x="42" y="894">The ladder intentionally surfaces blockers before attractive chemistry. It says what to do next, not which molecule is pretty.</text>
</svg>
